<svg id="Livello_1" data-name="Livello 1" xmlns="http://www.w3.org/2000/svg" viewBox="0 0 4546.22 462.04"><defs><style>.cls-1{fill:#fa7d03;}.cls-2{fill:#fff;}</style></defs><path class="cls-1" d="M848.84,306.92V231.47h77.07V154.74H849.46V77.6H772.15v75.46H695.76V76.69h75.6V.29h232.51V76H1080V307.46h-75.59v78.42H926.86V462H617.51V386.37h-77V309.21H463.73V231.78H385.39V155.14H231.81v75.44h-77.7V307.3h76.47v77.14h77.31V309h76.43v76.36H308.73v76.4H76.14V386.06H0V154.59H75.59V76.16h77.57V0H462.51V75.68h77v77.16h76.83v77.44h78.34v76.64Z"/><path class="cls-2" d="M1348.64,362.07V100h52.42V47.55h314.52V152.39h-262.1V309.65h262.1V414.49H1401.06V362.07Z"/><path class="cls-2" d="M1768,362.07V100h52.42V47.55h262.09V100h52.42v262.1h-52.42v52.42H1820.42V362.07Zm104.84-52.42h157.25V152.39H1872.84V309.65Z"/><path class="cls-2" d="M2187.35,362.07V47.55h104.84v262.1h157.26V47.55h104.84V362.07h-52.42v52.42h-262.1V362.07Z"/><path class="cls-2" d="M2606.71,414.49V47.55h104.84V100H2764v52.42h52.42v52.42h52.42V47.55h104.84V414.49H2868.8V309.65h-52.42V257.23H2764V204.81h-52.41V414.49H2606.71Z"/><path class="cls-2" d="M3026.06,152.39V47.55h314.52V152.39H3235.74v262.1H3130.9V152.39H3026.06Z"/><path class="cls-2" d="M3393,414.49V47.55h314.51V100h52.42V204.81h-52.42v52.42h52.42V362.07h-52.42v52.42H3393Zm104.84-209.68h157.25V152.39H3497.84Zm0,104.84h157.25V257.23H3497.84Z"/><path class="cls-2" d="M3812.35,362.07V100h52.42V47.55h262.1V100h52.42v262.1h-52.42v52.42h-262.1V362.07Zm104.84-52.42h157.26V152.39H3917.19V309.65Z"/><path class="cls-2" d="M4231.71,152.39V47.55h314.51V152.39H4441.38v262.1H4336.55V152.39H4231.71Z"/></svg>