<svg id="Livello_1" data-name="Livello 1" xmlns="http://www.w3.org/2000/svg" viewBox="0 0 3751.57 1080"><defs><style>.cls-1{fill:#ea3232;}.cls-2{fill:#32b813;}.cls-3{fill:#3c50e3;}.cls-4{fill:#fff;}</style></defs><rect width="3751.57" height="1080"/><path class="cls-1" d="M472.87,678.49c0-1.6-.08-3.2-.08-4.79V406.31c0-1.59,0-3.19.07-4.79l16.17-.15q.12,7.59.25,15.17c1,1.55,2.54,1,3.88,1h28.53q.15,7.62.31,15.22c.5.34,1,.9,1.5,1a30.34,30.34,0,0,0,3.81.15l27.2.16q.11,7.5.22,15c.68,1.57,2.11,1.16,3.3,1.16q14.49,0,29,0l-.09-.1c.09,1.75.21,3.5.26,5.25.08,3.35.12,6.7.18,10,.67,1.58,2.1,1.16,3.29,1.16h29.42l-.07-.09.33,15.49c.11.68.53.85,1.14.7,3.31.05,6.62.1,9.94.13l21.76.16-.13-.11v15.4c0,.67.41.88,1,.74,3,0,6,.1,9,.12q11.36.09,22.72.15h-.12l.09,15.32c0,.66.35.88,1,.74l14.55.26a22.4,22.4,0,0,1,.54,2.85c.09,1.44,0,2.88,0,4.32V786.48c0,2.07-.12,4.15-.19,6.22l-15.89.12-.22-15c-1.46-1.72-3.48-1.28-5.33-1.28H653.08c-.09-3.63-.14-7.26-.3-10.88-.07-1.54-.36-3.08-.56-4.62a24.3,24.3,0,0,0-4.14-.75H620.36c-.12-3.3-.22-6.61-.38-9.91-.09-1.88-.28-3.76-.42-5.64a15.68,15.68,0,0,0-3.15-.81c-2.21-.14-4.45,0-6.67-.06l-22.42-.22c-.05-3.32-.08-6.64-.16-10,0-1.72-.17-3.46-.26-5.19a11.6,11.6,0,0,0-2.63-.87c-1.9-.14-3.81-.07-5.72-.08l-23.85-.22c-.05-3.32-.09-6.65-.16-10,0-1.73-.15-3.47-.23-5.21-1.45-1.45-3.31-.92-5-.94C540.2,711,531.09,711,522,711c-.05-3.31-.09-6.62-.16-9.93,0-1.73-.13-3.46-.2-5.19a7.45,7.45,0,0,0-2.07-.89c-1.4-.15-2.84-.08-4.26-.09l-26.06-.16q-.17-7.61-.35-15.17c-.68-1.19-1.87-.92-2.92-.94Q479.44,678.6,472.87,678.49Z"/><path class="cls-2" d="M913.08,695.22H883.46c-.77-.16-1.33,0-1.51.88-.06,3.33-.11,6.66-.2,10,0,1.74-.17,3.47-.27,5.22l-1,.26H850.87c-.77-.17-1.4-.06-1.62.84-.06,3.32-.1,6.65-.18,10,0,1.74-.13,3.48-.2,5.22l-1,.38q-14.83,0-29.67.1a4.57,4.57,0,0,0-1.45.59c-.82,5,0,10.12-.5,15.18l-1,.42-30.46.05-.93.64-.3,15.14-.92.46H752.16l-1,.65c0,3.5-.1,7-.18,10.49,0,1.54-.13,3.09-.19,4.54a5.42,5.42,0,0,1-1.65.63q-14.77.09-29.57.13l-1-.55c-.05-1.6-.16-3.2-.16-4.79V499.07l-.07.14c1.75-.08,3.5-.23,5.25-.24h23c1.4,0,2.9.31,4.35-1.16,0-4.8.09-9.89.14-15l-.08.09c1.76-.08,3.51-.22,5.26-.23h23c1.4,0,2.91.3,4.43-1.19V466.56l2.15-.4h29.38l1.08-.57q.13-7.62.25-15.22l1.91-.51h29.39l1.14-.54q.18-7.65.37-15.3l1.65-.61H880.6l1.06-.34.16-15.49a.6.6,0,0,0-.11-.84v.2l.92.27,1.06-.11h29.57l1.07-.35.16-15.48a.65.65,0,0,0-.12-.85v.15a1.45,1.45,0,0,0,.86.23l1.16-.08h13.17l1.21.51c.13,1.74.37,3.48.37,5.23v265.8a20.2,20.2,0,0,1-.46,6.15c-5.25,1-10.4-.22-15.28.71-1.11,1.67-.72,3.32-.77,4.88-.13,3.67-.2,7.34-.29,11Z"/><path class="cls-3" d="M620,466.49l.07.08c0-.1.16-.22.14-.29a2.87,2.87,0,0,0-.25-.53c0-2.36.08-4.74,0-7.1-.07-2.83-.26-5.65-.39-8.46-.23-.72-.65-.81-1.22-.37H591.63c-1.57,0-3.15.2-4.72.31l.09.1.13-.83q-.11-7.74-.22-15.47c-1.07-1.36-2.6-.9-3.95-.91-7.59,0-15.18,0-22.77,0-1.89,0-3.78-.18-5.68-.28l-.06.09-.17-15.17c-.74-1.13-1.93-.91-3-.92H525.76a15.36,15.36,0,0,0-2.33.32l-1.78-.37-.06-15.32c-.87-1.34-2.27-1-3.48-1q-12.24-.06-24.46,0a27,27,0,0,0-2.85.34l-1.8-.45.06.06.21-15.23q13.41,0,26.81-.11c1.88,0,3.86.33,5.53-1,.06-3.33.12-6.66.2-10,0-1.74.13-3.48.19-5.22,8.91,0,17.82-.06,26.72-.13,1.89,0,3.85.3,5.54-.93.09-4.11.16-8.23.29-12.35,0-1.23-.34-2.56.67-3.62a25,25,0,0,0,3.75.56c7.93.05,15.86.07,23.8,0a20,20,0,0,0,4.11-.89c.09-4.11.17-8.23.29-12.34,0-1.23-.34-2.56.68-3.62a24.82,24.82,0,0,0,3.74.56c7.93,0,15.87.07,23.8,0a20.88,20.88,0,0,0,4.13-.84c.15-1.87.35-3.74.44-5.61.15-3.29.24-6.58.35-9.88,8.91,0,17.81.09,26.72,0a31.6,31.6,0,0,0,5.11-.81,13,13,0,0,0,.62-2.69c.08-3.35,0-6.7,0-10,0-1.08.19-2.15.32-3.48,3.69-.37,7.17-.15,10.64-.19s7,0,10.51,0H685c1.1-5.25,0-10.36.71-15.36h32.33l.31,15.18c1.83,1.33,4,1.05,6,1.06q13.14.06,26.3.07.17,7.62.31,15.23c1.68,1.24,3.64,1,5.54,1,9,0,17.9,0,26.84,0l.31,15.2c1.78,1.4,3.9,1.07,5.92,1.08H816.1q.12,7.56.22,15.13c1.6,1.38,3.56,1.14,5.43,1.15h27.06c.08,4,.13,7.94.25,11.92,0,1.22-.38,2.57.71,3.6,1.76,1,3.7.77,5.58.77H881.5c.09,3.8.15,7.59.28,11.39.05,1.39-.39,2.87.63,4.11,1.73,1.07,3.68.81,5.56.81h26.16v15.38h-27a26.5,26.5,0,0,0-3.78.15c-.52.08-1,.67-1.44,1l-.15,5.59c-.09,3.26-.17,6.51-.26,9.77v-.2H855.36a38,38,0,0,0-4.27.09,6.38,6.38,0,0,0-1.94,1q-.1,7.65-.2,15.25H824.63c-2.06,0-4.12-.06-6.17.08-.68.05-1.32.66-2,1l-.12,15.29-.19-.13-1.1.55-30.33.05c-.64-.38-1-.18-1,.55l-.11,15.32a.5.5,0,0,0-.23.67.48.48,0,0,0,.12.16v-.08c-1.58-.11-3.15-.32-4.73-.33H752.06c-.65-.41-1-.23-1.06.52l-.13,16.25.08-.09c-3.67,0-7.35-.13-11-.16s-7-.09-10.55,0-7.26-.53-11.13.6v16l.07-.14q-15.62,0-31.24-.07a9.19,9.19,0,0,0-1.39.25h.12c-.75-5.34.31-10.78-.7-16.44-1.7-.07-3.25-.19-4.81-.2H662.14c-3,0-6,.14-9.07.22l.13.11c-.12-4-.2-7.94-.37-11.9-.07-1.56-.35-3.1-.54-4.65-.3-.67-.73-.73-1.27-.29H625.24C623.48,466.15,621.75,466.37,620,466.49Z"/><path class="cls-4" d="M1265.3,598.62V489.25h93.75v15.62h15.63v31.25h-15.63v15.63h15.63V583h-15.63v15.62H1265.3Zm31.25-62.5h46.88V520.5h-46.88Zm0,31.25h46.88V551.75h-46.88Z"/><path class="cls-4" d="M1390.3,598.62V489.25h93.75v15.62h15.63v46.88h-15.63v15.62h15.63v31.25h-31.25V567.37h-46.88v31.25H1390.3Zm31.25-62.5h46.88V520.5h-46.88Z"/><path class="cls-4" d="M1515.3,598.62V489.25h109.38V520.5h-78.13v15.62h46.88v15.63h-46.88v15.62h78.13v31.25H1515.3Z"/><path class="cls-4" d="M1640.3,598.62V489.25h31.25v15.62h15.63V520.5h15.62V504.87h15.63V489.25h31.25V598.62h-31.25v-62.5H1702.8v15.63h-15.62V536.12h-15.63v62.5H1640.3Z"/><path class="cls-4" d="M1765.3,598.62V489.25h109.38V520.5h-78.13v15.62h46.88v15.63h-46.88v15.62h78.13v31.25H1765.3Z"/><path class="cls-4" d="M1890.3,598.62V504.87h15.63V489.25h78.12v15.62h15.63v93.75h-31.25V567.37h-46.88v31.25H1890.3Zm31.25-62.5h46.88V520.5h-46.88Z"/><path class="cls-4" d="M2093.43,598.62V489.25h93.75v15.62h15.62V583h-15.62v15.62h-93.75Zm31.25-31.25h46.87V520.5h-46.87v46.87Z"/><path class="cls-4" d="M2218.43,598.62V489.25H2327.8V520.5h-78.12v15.62h46.87v15.63h-46.87v15.62h78.12v31.25H2218.43Z"/><path class="cls-4" d="M2343.43,520.5V489.25h31.25V520.5h15.62v31.25h15.63V520.5h15.62V489.25h31.25V520.5h-15.62v31.25h-15.63V583h-15.62v15.62H2390.3V583h-15.62V551.75h-15.63V520.5Z"/><path class="cls-4" d="M2468.43,598.62V489.25H2577.8V520.5h-78.12v15.62h46.87v15.63h-46.87v15.62h78.12v31.25H2468.43Z"/><path class="cls-4" d="M2593.43,598.62V489.25h31.25v78.12h78.12v31.25H2593.43Z"/><path class="cls-4" d="M2718.43,583V504.87h15.62V489.25h78.13v15.62h15.62V583h-15.62v15.62h-78.13V583Zm31.25-15.63h46.87V520.5h-46.87v46.87Z"/><path class="cls-4" d="M2843.43,598.62V489.25h93.75v15.62h15.62v46.88h-15.62v15.62h-62.5v31.25h-31.25Zm31.25-62.5h46.87V520.5h-46.87Z"/><path class="cls-4" d="M2968.43,598.62V489.25h31.25v15.62h15.62V520.5h15.63V504.87h15.62V489.25h31.25V598.62h-31.25v-62.5h-15.62v15.63H3015.3V536.12h-15.62v62.5h-31.25Z"/><path class="cls-4" d="M3093.43,598.62V489.25H3202.8V520.5h-78.12v15.62h46.87v15.63h-46.87v15.62h78.12v31.25H3093.43Z"/><path class="cls-4" d="M3218.43,598.62V489.25h31.25v15.62h15.62V520.5h15.63v15.62h15.62V489.25h31.25V598.62h-31.25V567.37h-15.62V551.75H3265.3V536.12h-15.62v62.5h-31.25Z"/><path class="cls-4" d="M3343.43,520.5V489.25h93.75V520.5h-31.25v78.12h-31.25V520.5h-31.25Z"/></svg>