<?xml version="1.0" encoding="utf-8"?>
<!-- Generator: Adobe Illustrator 26.0.1, SVG Export Plug-In . SVG Version: 6.00 Build 0)  -->
<svg version="1.1" id="Livello_1" xmlns="http://www.w3.org/2000/svg" xmlns:xlink="http://www.w3.org/1999/xlink" x="0px" y="0px"
	 viewBox="0 0 7567.1 1080" style="enable-background:new 0 0 7567.1 1080;" xml:space="preserve">
<style type="text/css">
	.st0{fill:#66A62B;}
	.st1{fill:#58852D;}
	.st2{fill:#4B692F;}
	.st3{fill:#76CD24;}
	.st4{fill:#364D22;}
	.st5{fill:#59301D;}
	.st6{fill:#59301E;}
	.st7{fill:#59311E;}
	.st8{fill:#6E3D27;}
	.st9{fill:#38271F;}
	.st10{fill:#382720;}
	.st11{fill:#8E553B;}
	.st12{fill:#724029;}
	.st13{fill:#70422C;}
	.st14{fill:#925D44;}
	.st15{fill:#6D3C26;}
	.st16{fill:#90EC3A;}
	.st17{fill:#392820;}
	.st18{fill:#3E2B23;}
	.st19{fill:#412E26;}
	.st20{fill:#7C472D;}
	.st21{fill:#6E3D26;}
	.st22{fill:#7D482E;}
	.st23{fill:#582F1C;}
	.st24{fill:#FFFFFF;}
</style>
<path class="st0" d="M342,202.4v-12.3l5.9-0.5v-17.4l6-0.5v-11.1l5.8-1v-11.3l5.9-0.7v-11l6.1-0.9c0.2-1.8,0.4-3.5,0.6-5.4l5.4-0.8
	v-10.9l6-0.8c0.1-1.8,0.3-3.6,0.4-5.6l5.5-0.6c0.2-1.6,0.5-3.2,0.8-5.3l5.1-1c0.1-1.5,0.3-3,0.4-4.8l5.5-0.7
	c0.2-1.7,0.5-3.6,0.8-5.7l5.5-0.4c0.2-1.8,0.4-3.5,0.6-5.4l5.2-0.9c0.1-1.5,0.2-3,0.4-4.8l5.5-0.8c0.2-1.7,0.4-3.4,0.6-5.4l5.7-0.7
	c0.1-1.8,0.3-3.5,0.5-5.7h11.1c0.3-2.1,0.5-3.8,0.7-5.6l5.6-0.6c0.2-1.8,0.4-3.5,0.6-5.7h11.2c0.2-2.1,0.4-3.8,0.6-6h11.5
	c0.4-2.2,0.6-3.8,1-6h17c0.3-2.2,0.6-3.8,0.9-6h17.3c0.2-2.2,0.3-3.9,0.5-6.1h23.4c0.2-2.1,0.3-3.8,0.4-5.8h76.7
	c0.2,1.7,0.4,3.3,0.7,5.5h23.1c0.2,2.2,0.4,3.8,0.7,6.1h11.5c0.2,2.2,0.5,3.9,0.7,5.8l10.9,0.5l0.9,5.3l5.4,0.5
	c0.2,1.7,0.5,3.6,0.8,5.7l5.3,0.5c0.2,1.7,0.5,3.4,0.8,5.6h11c0.3,2.2,0.5,3.8,0.7,5.7l5.5,0.5c0.2,1.9,0.4,3.6,0.7,5.7h11.1
	c0.2,2.1,0.4,3.8,0.7,5.8l5.6,0.9c0.2,1.5,0.4,3,0.6,4.9l5,0.8c0.2,1.8,0.5,3.5,0.7,5.5l5.5,0.5c0.1,1.8,0.2,3.5,0.4,5.5l5.9,0.8
	c0.1,1.6,0.2,3.1,0.3,5l5.4,0.6l0.6,5.5l5.3,0.6c0.2,1.7,0.3,3.4,0.5,5.5l5.7,0.8c0.2,1.5,0.3,3,0.5,5l5.3,0.8
	c0.2,1.6,0.5,3.2,0.8,5.2l5.1,0.8c0.2,1.8,0.3,3.5,0.5,5.5l6,0.8v11.1l5.8,0.6c0.2,1.9,0.4,3.6,0.6,5.5l5.3,0.8v10.9l6.2,0.9v11.6
	l6.1,0.6v11.1l5.6,0.7v17.2l6.2,0.7v17.3l6,0.6v23.3l5.7,1c0.4,7.9,0.7,15.8,1.1,23.8l-5,7.1l-1.5-0.6v10.8l-5.7,1.3
	c-0.4,2-0.7,3.7-1,5.3l-5.2,0.7c-0.4,1.6-0.7,3-1.1,4.6l-10.6,0.6c-0.4,2.1-0.6,3.8-1,5.8l-10.7,0.5c-0.2,10-8.2,4.2-12.6,6.8
	c-0.3,1.1-0.6,2.6-0.6,2.7c-2.1,1.4-4.1,2.8-6,4.4c-1.5,1.6-2.9,3.4-4.1,5.2l-1-0.6c-0.3,1.7-0.6,3.4-0.9,5.1l-5.3,0.8l0.8,1.3
	l-4.9,3.6c-0.9,0.5-1.7,1.1-2.4,1.8c-1.5,2-2.9,4.1-4.3,6.2l-1-0.6c-0.2,1.5-0.5,3-0.7,4.8l-5.2,0.8l0.7,0.8l-12.7,12.4
	c-0.1,0.6-0.4,2.3-0.7,3.8l-5.4,1l0.8,1.1L683.5,384c-0.1,0.5-0.4,2.2-0.8,4.2h-11.4c-0.3,2.1-0.6,3.8-0.9,5.5l-0.8-0.6l-6.7,6.9
	h-9.5c-0.3,2.2-0.6,3.8-1,5.8l-10.5,0.5c-0.5,2.2-0.9,4-1.4,6c-4.7,0-9-0.1-13.4,0.1c-1.2,0-3.4,0.9-3.4,1.4
	c-0.2,4.8-3.6,3.8-6.5,3.8c-5.8,0-11.6-0.1-17.4,0.1c-4,0.1-7.8,0.3-7.9-5.4c-5.8,0-11.3-0.1-16.7,0c-4.2,0.1-8.3,0.4-5.9-6.6h-11.8
	c-0.5-2.3-0.8-4-1.2-6.1h-10.1c-0.7-2-1.2-3.5-1.9-5.5h-9.7c-0.8-2.3-1.4-5.5-2-5.5c-4.8,0-3.8-4.1-4.9-6.6l-4.8-0.6l0.7-0.9
	l-11.9-11.7l-0.7,0.6l-1.3-5.8h-11.3l-0.9-5.5l-0.9,0.6l-6.2-6.5l-4.2-0.7v-11.5l-5.9-1c-0.2-3.6-0.4-7.1-0.5-10.5l-5.7-1.3l-0.7-5
	l-0.9,0.6c-1.8-1.9-3.6-3.7-6.4-6.5l-4.1-0.7V305c-8.9-3.8-13.3-9.6-11.7-18.6l-5.7-1.1c-0.3-1.9-0.6-3.6-0.9-5.4l-5.9-0.9
	c1.7-4.9-2.4-4.5-4.8-5.4c-0.4-2-0.7-3.6-1-5.2l-5.3-1c-0.4-2-0.7-3.6-1-5.3l-5.3-0.9l0.8-1.2l-6.4-5.6c-0.1-0.7-0.5-2.4-0.7-3.9
	l-5.3-1c-0.4-2-0.7-3.7-1-5.3l-5.2-0.9c-0.8-8.6-8.1-2.7-11.8-5.8c-0.2-1.4-0.5-3.1-0.8-4.8l-5.5-1.2c-0.4-2-0.7-3.7-1-5.4l-5-0.7
	c-0.6-1.7-1.1-3.3-1.8-5.2h-10.1c-0.3-2.1-0.6-3.8-0.9-5.6l-5.3-0.8c-0.5-2-0.9-3.9-1.4-6h-10.2c-0.5-1.9-0.9-3.4-1.3-5L342,202.4z
	 M528.6,290.3c2.3,1.9,4.7,3,4.9,4.3c0.5,3.8,2.8,4.2,5.6,3.8c5.2-0.7,6.9,1.5,6.2,6.5c-0.3,2.6-0.5,5.4,3.6,5.5
	c0.6,0,1,1.9,1.7,2.7c1,1.2,2.1,2.3,3.3,3.3c0.8,0.7,2.7,1.1,2.7,1.7c0,4.1,2.8,3.7,5.5,3.7c2,0,4,0,5.8,0c0.5,2.6,0.9,4.3,1.3,6.6
	h17.7c0.5,2.3,0.8,4,1.1,5.6h52.8l1-6h16.9c0.4-2.3,0.6-4,0.8-4.8c2.1-1.1,4-2.3,5.9-3.6c1.9-1.7,3.7-3.6,5.3-5.5
	c0-0.1,0.3-1.8,0.6-3.5l5.4-0.9c0.3-1.9,0.6-3.6,0.8-5.4l5-0.8c2.7-4-3-11.4,5.7-11.8c0.4-2,0.7-3.7,1-5.3l5.5-1
	c0.2-3.7,0.4-7.1,0.6-10.6l5.7-0.9c0.2-3.1,0.2-6.4,4.5-6.2c0.3,0,0.6-0.7,0.9-1.1l4.7-6.4l1.9,0.8v-16.7l6.2-1.1
	c-0.1-2.6-0.1-5.3,0.1-7.9c0.5-3.7-2.7-9.2,4.5-10.1c0.3-0.1,0.7-1.5,0.7-2.3c0-10.7,0-21.4,0-32l-5.5-1.9v-28l-5.6-0.9
	c-0.3-1.9-0.6-3.6-0.8-5.3l-5.9-1.3c0-2.7,0.5-5.3-0.2-7.6c-0.6-1.8-2.6-3.2-4-4.7l-0.7,0.6c-0.3-1.7-0.6-3.4-0.9-5.1l-5.4-0.9
	c-0.3-1.9-0.6-3.6-0.7-4.7c-8.7-3.7-13-9.5-11.4-18.6l-5.7-1l0.5-0.8l-8.8-9l0.7-0.8l-4.1-1c-0.3-1.9-0.6-3.5-1-5.8h-11.6l-0.9-5.9
	l-5.6-0.9c0.6-4.8-2.4-5.1-5.9-4.9c-4,0.2-7.9,0-11.8,0c-0.5-2.5-0.8-4.2-1.2-6.5h-16.8l-1.1-6.2c-4.6,0-8.9,0.1-13.3-0.1
	c-1.3,0-3.6-0.6-3.6-1.1c-0.4-5.9-4.7-3.9-7.8-4.1c-3.3-0.2-6.6,0-9.9,0c-0.5-2.4-0.9-4.2-1.5-6.5h-16.6l-1.1-5.7h-33.8
	c-0.3,2-0.6,3.7-1,6h-16.9c-0.4,2.3-0.7,4-1,6.2c-2.9,0-5.7-0.2-8.5,0.1c-1.2,0.1-3.3,0.9-3.3,1.5c-0.1,4.5-3.3,3.7-6,3.7
	c-1.9,0-3.7,0.2-5.4,0.3c-0.4,2.3-0.8,4-1.2,6c-2,0-3.7,0-5.4,0s-3.4,0.2-5.1,0.3c-0.4,2.2-0.7,3.9-1,5.6l-5.3,0.8
	c0.2,0.3,0.5,0.6,0.7,0.9L450.5,96c-0.1,0.5-0.3,2-0.5,3.6l-5.5,1.2c-0.4,2-0.7,3.7-1,5.3l-5,0.7l0.6,0.8l-7,6.9
	c-1,2.8,3.9,10.3-5.6,10.4v16.9l5.9,1.1c0,3.4-0.2,6.5,0,9.6s-1.9,7.8,4.2,8.2c0.4,0,0.9,2.4,1,3.7c0.1,4.3,0,8.7,0,13l6.1,1.4
	c0.2,3.7,0.4,7.1,0.5,10.4l6.1,1.2v11.1l5.5,1.9v10.1l5.6,0.9c0.3,1.9,0.5,3.6,0.9,5.5l5.2,0.8l-0.7,0.9l6.5,6.2
	c0,0.2,0.3,1.9,0.6,3.7l5.4,0.8c0.3,1.9,0.6,3.6,0.8,5.5l4.6,0.7c1.3,2,2.2,4.8,3.2,4.7c4.9-0.1,3.8,3.3,3.8,6.2l5.4,0.8l1.2,5.6
	l5.2,0.7c0.4,1.6,0.7,3,1,4.5l1-0.8l9.9,9.6c0.1,0.4,0.4,2.1,0.7,3.8l5.5,0.9c0.2,3.7,0.4,7.1,0.6,10.6l5.6,0.9
	C528.2,288,528.5,289.5,528.6,290.3L528.6,290.3z"/>
<path class="st1" d="M342,202.4l5.4,0.2c0.4,1.6,0.8,3.1,1.3,5h10.2c0.5,2.2,0.9,4,1.4,6l5.3,0.8c0.3,1.8,0.6,3.5,0.9,5.6h10.1
	c0.7,2,1.2,3.5,1.8,5.2l5,0.7c0.3,1.7,0.6,3.3,1,5.4l5.5,1.2c0.3,1.7,0.6,3.4,0.8,4.8c3.7,3,10.9-2.9,11.8,5.8l5.2,0.9
	c0.3,1.7,0.6,3.3,1,5.3l5.3,1c0.3,1.5,0.6,3.2,0.7,3.9l6.4,5.6l-0.8,1.2l5.3,0.9c0.3,1.7,0.6,3.4,1,5.3l5.3,1c0.3,1.6,0.6,3.2,1,5.2
	c2.4,0.9,6.5,0.5,4.8,5.4l5.9,0.9c0.3,1.7,0.6,3.4,0.9,5.4l5.7,1.1c-1.6,9.1,2.8,14.8,11.7,18.6v10.9l4.1,0.7
	c2.8,2.8,4.6,4.7,6.4,6.5l0.9-0.6l0.7,5l5.7,1.3c0.2,3.4,0.4,6.9,0.5,10.5l5.9,1v11.5l4.2,0.7l6.2,6.5l0.9-0.6l0.9,5.5h11.4l1.3,5.8
	l0.7-0.6l11.9,11.7l-0.7,0.9l4.8,0.6c1.1,2.5,0.1,6.6,4.9,6.6c0.6,0,1.2,3.2,2,5.5h9.7c0.7,2,1.2,3.5,1.9,5.5h10.1
	c0.4,2.1,0.8,3.7,1.2,6.1h11.9c-2.4,7,1.7,6.7,5.9,6.6c5.4-0.1,10.9,0,16.7,0c0.1,5.7,3.9,5.5,7.9,5.4c5.8-0.2,11.6,0,17.4-0.1
	c2.8,0,6.2,1,6.5-3.8c0-0.5,2.2-1.3,3.4-1.4c4.4-0.2,8.8-0.1,13.4-0.1c0.5-2.1,0.9-3.9,1.4-6l10.5-0.5c0.3-2,0.6-3.6,1-5.8h9.5
	l6.7-6.9l0.8,0.6c0.3-1.7,0.5-3.3,0.9-5.5h11.4c0.4-2.1,0.7-3.7,0.8-4.2l12.7-12.2l-0.8-1.1l5.4-1c0.3-1.6,0.6-3.2,0.7-3.8
	l12.8-12.4l-0.7-0.8l5.2-0.8c0.3-1.7,0.5-3.3,0.7-4.8l1,0.6c1.4-2.1,2.8-4.2,4.3-6.2c0.7-0.7,1.5-1.3,2.4-1.8l4.9-3.6l-0.8-1.3
	l5.3-0.8c0.3-1.7,0.6-3.4,0.9-5.1l1,0.6c1.3-1.8,2.6-3.5,4.1-5.2c1.9-1.6,3.9-3.1,6-4.4c0-0.1,0.4-1.5,0.6-2.7
	c4.4-2.6,12.4,3.2,12.6-6.8l10.7-0.5c0.3-1.9,0.6-3.6,1-5.8l10.6-0.6c0.4-1.6,0.7-3.1,1.1-4.6l5.2-0.7c0.3-1.6,0.6-3.3,1-5.3
	l5.7-1.3v-10.9l1.5,0.6l5-7.1h5.3v29.5l6.3,0.4v17.6h-5.6c-0.5,2.5-1,4.2-1.5,6.6h-22.9c-0.5,2.3-0.8,4-1.2,6.1h-10.3
	c-0.4,1.9-0.8,3.3-1.2,4.9l-5.3,0.9c-0.3,2-0.6,3.6-0.9,5.6l-10.5,0.5c-0.5,2.2-0.9,4-1.3,5.6l-5.5,1.1c-0.2,3.8-0.4,7.2-0.5,10.4
	l-5.6,1.1c-0.4,2-0.7,3.7-1,5.3l-1.5-0.7c-1.1,1.6-2.6,3.1-3.1,4.9c-0.5,2.3-0.1,4.8-0.1,7.1l-6.5,1.5v11.2l-6.1,1.4
	c0,4.1,0,8,0,11.8c0,2.6,0.7,5.5-3.5,5.6c-0.6,0-1.6,2.4-1.7,3.7c-0.2,4.5-0.1,9-0.1,13.4l-6,1.1c-0.2,3.7-0.4,7.1-0.6,10.6
	l-5.5,0.9l0.8,1l-8.2,9.9l-4.3,0.8c-0.3,2-0.7,3.6-1,5.5l-10.6,0.6c-0.3,2.1-0.6,3.8-1,6.1h-11.6c-0.4,2.3-0.7,4-1,6.2
	c-2.6,0-5-0.2-7.4,0.1c-1.2,0.1-3.3,0.9-3.3,1.5c-0.1,4.5-3.3,3.7-6,3.7c-2.2,0-4.4,0-6.4,0c-0.5,2.6-0.9,4.3-1.3,6.5h-16.8
	c-0.4,2.3-0.7,4-1,5.7h-17c-0.3-2-0.6-3.7-1-5.9h-34.8c-0.4-2.4-0.7-4-0.9-5.9l-5.2-0.8c-0.1-1.7-0.2-3.1-0.3-4.9
	c-3.9,0-7.4-0.2-10.9,0c-4.5,0.3-8.3,0-7.9-6.5h-14.5c-3-4-5.6-6.7-7.3-9.9c-3-5.3-8.1-1-11.2-3.7l-6.7-6.7l-0.7-3.7l-11.6-0.5
	c-0.3-2.2-0.5-3.7-0.6-4.4c-2.3-1.7-4-3-5.7-4.1c-1.5-1-3.1-2.3-4.8-2.7c-2.1-0.5-4.4-0.1-6.7-0.1c-0.4-2.4-0.6-4.1-0.9-5.9
	l-5.3-0.8c-0.5-2.1-0.9-3.9-1.4-6.3c-10.7,3.5-11.8-3-11-10.7l-5.7-1.1c-0.2-1.8-0.5-3.4-0.8-5.6c-4.7,1.5-4.7-2.5-5.7-5l-5-0.8
	c-0.5-2-0.9-3.8-1.2-5.5l-5.4-1c-0.3-1.9-0.5-3.4-0.7-5.2l-4.7-1.1c0.2-4.4-1.4-6.6-6-4.9c-0.5-2.2-0.8-4-1.2-5.7l-5.7-1.1V360
	l-7.6-7.6l-3.4-0.5c-0.4-2-0.9-3.8-1.2-5.5l-6-1.2v-16.6l-6.1-1.2c0-3.5-0.1-6.9,0-10.2c0.2-4,0.4-7.8-5.6-7.9v-22.9l-5.6-0.9
	c-0.3-1.9-0.6-3.6-0.8-5.3l-5.9-1.4c0-5.9,0-11.5,0-17.1c0-2.5,0.7-5.5-3.5-5.6c-0.6,0-1.6-2.4-1.7-3.7c-0.2-4.5-0.1-9-0.1-13.4
	l-5.9-1.1c-0.3-1.9-0.6-3.6-0.9-5.4l-5.5-0.9c-0.2-1.4,0.1-3.1-0.5-3.7c-1-1-2.6-1.2-4-1.8c0.1,4,0.2,8.1,0.4,12.1
	c4.9-0.1,3.8,3.5,3.8,6.3c0,7,0,14.1,0,21.1V279l6.1,1.1c0.2,4,0.3,7.8,0.5,11.6l6,1v5.9c0,14.2-0.1,28.5,0.1,42.7
	c0,1.5,1.2,4.3,2.1,4.4c3.5,0.4,3.1,2.7,3.1,5c0,2.1,0,4.1,0,6.2l6.1,1.4c0.2,4,0.4,7.8,0.6,11.4l6,1.2c0,3.5,0.1,6.9,0,10.2
	c-0.2,4-0.5,7.9,5.5,7.9v10.1l6.3,1.4V417l6.4,1.5v22.9l5.5,1.1c1.8,4.4-2.7,11.3,6.1,12v11.3l5.6,0.9c0.3,1.9,0.6,3.6,0.8,5.3
	l5.9,1.3c0,2.6-0.2,4.9,0.1,7.1c0.1,1.2,0.9,3.4,1.4,3.4c4.5,0.1,3.7,3.2,3.8,6c0,1.9,0.2,3.7,0.3,5.5l6.2,1.2v16.8l5.8,1v29.6l-6,1
	v15.7l-6.3,1.4c0.1,2.5,0.1,5.1-0.1,7.6c-0.1,1.1-1.2,3-1.9,3c-3.4,0.2-3.4,2.3-3.3,4.8s0,5.1,0,7.6l-5.8,1.1
	c-0.4,1.6-0.7,2.9-1,4.4l-5.4,0.8c-0.3,1.9-0.5,3.6-0.8,5.3l-1.3-0.7c-1.3,1.8-2.4,3.7-3.8,5.3c-0.9,0.9-2,1.7-3.1,2.3
	c-0.9,0.5-2.6,0.8-2.6,1.2c0.3,4.9-4,3.8-6.3,4.9c-0.4,1.9-0.7,3.6-1,5.4l-10.5,0.5c-0.4,2.2-0.7,3.9-1.1,6c-3,0-5.8-0.2-8.6,0.1
	c-1.2,0.1-3.2,1.1-3.2,1.7c-0.1,4.2-3.1,3.5-5.6,3.5c-1.9,0-3.8,0-5.6,0c-0.6,2.5-1,4.3-1.5,6.5h-16.4c-0.5,2.2-0.9,4-1.4,6.2h-10.5
	c0.4,6.4-3.5,6.4-7.9,6.4c-1.9,0.1-3.6,0.8-5,2.1c-2.8,2.8-5,6-7.6,9c-0.3,0.3-1,0.3-1.5,0.3c-12.6,0-25.2,0-37.9,0l-1.4-6.2h-29.4
	c-0.2-1.7-0.4-3.4-0.7-5.6h-11c-0.2-2.2-0.4-3.9-0.6-6.1h-11.6c-0.3-2.2-0.5-3.8-0.7-6h-11.1c-0.3-2.1-0.5-3.8-0.8-5.7l-5.4-0.6
	c-0.2-1.8-0.4-3.4-0.7-5.4l-5.2-0.7l-0.5-5.5l-5.5-0.6l-0.7-5.2l-5.6-0.9c-0.1-1.7-0.3-3.3-0.4-5.1l-5.2-0.8
	c-0.2-1.8-0.4-3.5-0.6-5.5l-5.4-0.6c-0.2-1.6-0.4-3.3-0.6-5.3l-5.7-0.9c-0.1-1.5-0.3-3.1-0.5-5l-5.4-0.6v-17.2l-5.9-0.8v-22.7h6.2
	c0,3.2-0.2,5.6,0.1,8c0.1,1.2,1,3.3,1.5,3.3c4.5,0.2,3.6,3.3,3.7,6c0.1,1.8,0.2,3.7,0.3,5.4l5.8,1.2c0.2,3.7,0.4,7.2,0.6,10.5l5.6,1
	c0.3,1.9,0.6,3.6,0.8,5c1.8,0.7,4.4,1.3,4.4,1.9c-0.1,4.8,4,3.9,6.4,4.9l1.1,5.4l10.5,0.6c0.4,2.2,0.7,3.9,1.1,6
	c3,0,5.8-0.2,8.6,0.1c1.2,0.1,3.2,1,3.2,1.6c0.1,4.2,3,3.6,5.6,3.6c3.9,0,7.8,0.2,11.6-0.1c4.6-0.4,8.1,0.3,7.8,6h22.5
	c-0.3-5.1,2.2-6.3,6.5-6s8.4,0.1,12.6,0.1c2.6,0,5.5,0.7,5.6-3.6c0-0.6,2.4-1.6,3.7-1.7c4.5-0.2,9-0.1,13.4-0.1
	c0.5-2.5,0.8-4.2,1.1-6l11.1-0.6c-1.3-6.3,2.6-6.1,6.7-6c3.8,0.1,7.6,0,11.5,0l-0.6-1.2l6.5-6.4c0-0.2,0.3-1.8,0.6-3.6l5.5-0.8
	c0.3-1.9,0.6-3.6,0.9-5.5l5.2-0.8l-0.7-0.9l6.5-6.2c0-0.3,0.3-2,0.6-3.7l5.3-0.8l-0.8-1.4l7.4-5.2c0.1-0.7,0.3-2.3,0.6-4.1
	c9.3-0.2,2.4-8.2,6-11.7l5-0.8c0.2-3.7,0.4-7.1,0.6-10.6l5.1-0.8c0.4-0.5,0.6-0.6,0.6-0.7c1.5-4.3-2.7-10.9,5.2-12.6
	c0.3-0.1,0.4-1.3,0.4-2c0-14.5,0-29.1,0-43.8l-5.4-1.3v-16.7l-6.2-1v-11.4l-5.9-1.4c-0.1-0.9-0.2-1.4-0.3-1.9
	c-0.7-3.6,2.3-8.8-4.5-9.7c-0.4,0-0.7-2.5-0.8-3.8c-0.1-4.3,0-8.6,0-12.8l-6-1.1c-0.2-3.7-0.4-7.1-0.6-11.2c-5.8,1.3-6.2-2.1-6-6.1
	c0.1-0.9,0.1-1.8,0-2.6c-0.7-3.5,2.6-8.9-4.5-9.7c-0.4,0-0.7-1.8-0.8-2.8c-0.2-2.5-0.2-4.9,0-7.4c0.5-4.8,0.1-8.8-6.5-8.8v-34.5
	l-6.1-1.4v-6c0-16.2,0-32.3-0.1-48.5c0-1.6-1.1-4.5-1.8-4.6c-3.8-0.3-3.4-2.8-3.4-5.3c0-2,0-4.1,0-6.1l-6.3-1.1
	c-0.1-2-0.1-3.9,0-5.9c0.6-4.3-1.3-5.6-5.4-5.3s-8,0.1-11.9,0.1l-1.4-6.1l-11-0.5c0.5-2.4,0.8-4.1,1.1-5.7h21.8l0.9-5.9H342V202.4z"
	/>
<path class="st2" d="M251.7,650.8h23.9l1.4,6.2c12.7,0,25.3,0,37.9,0c0.5,0,1.2,0,1.5-0.3c2.5-3,4.8-6.2,7.6-9c1.4-1.3,3.1-2,5-2.1
	c4.4,0.1,8.3,0,7.9-6.4h10.5c0.5-2.2,0.9-4,1.4-6.2h16.5c0.5-2.2,0.9-4,1.5-6.5c1.8,0,3.7,0,5.6,0c2.5,0,5.5,0.7,5.6-3.5
	c0-0.6,2-1.6,3.2-1.7c2.8-0.2,5.5-0.1,8.6-0.1c0.4-2.1,0.7-3.8,1.1-6l10.5-0.5c0.4-1.8,0.7-3.4,1-5.4c2.3-1.2,6.6,0,6.3-4.9
	c0-0.3,1.8-0.6,2.6-1.2c1.1-0.6,2.2-1.4,3.1-2.3c1.4-1.7,2.6-3.5,3.8-5.3l1.3,0.7c0.2-1.7,0.5-3.4,0.8-5.3l5.4-0.8
	c0.3-1.5,0.6-2.8,1-4.4l5.8-1.1c0-2.4,0-5,0-7.6s-0.1-4.6,3.3-4.8c0.7,0,1.8-1.9,1.9-3c0.2-2.5,0.2-5.1,0.1-7.6l6.3-1.4v-15.8l6-1
	v-29.6l-5.8-1v-16.8l-6.2-1.2c-0.1-1.8-0.2-3.6-0.3-5.5c-0.1-2.8,0.7-5.8-3.8-6c-0.5,0-1.3-2.2-1.4-3.4c-0.2-2.2-0.1-4.5-0.1-7.1
	l-5.9-1.3c-0.3-1.7-0.5-3.4-0.8-5.3l-5.6-0.9v-11.2c-8.8-0.7-4.3-7.5-6.1-12l-5.5-1.1v-22.9L402,417v-16.5l-6.3-1.4v-10.2
	c-6-0.1-5.7-4-5.5-7.9c0.2-3.3,0-6.6,0-10.2l-6-1.2c-0.2-3.6-0.4-7.4-0.6-11.4l-6.1-1.4c0-2.1,0-4.2,0-6.2c0-2.3,0.4-4.5-3.1-5
	c-0.9-0.1-2-2.9-2.1-4.4c-0.2-14.2-0.1-28.5-0.1-42.7v-5.9l-6-1c-0.2-3.8-0.3-7.6-0.5-11.6l-6.1-1.1v-13.4c0-7,0-14.1,0-21.1
	c0-2.8,1-6.4-3.8-6.3c-0.1-4-0.2-8.1-0.4-12.1c1.4,0.6,3,0.8,4,1.8c0.7,0.7,0.4,2.3,0.5,3.7l5.5,0.9c0.3,1.8,0.6,3.4,0.9,5.4
	l5.9,1.1c0,4.4-0.1,8.9,0.1,13.4c0.1,1.3,1,3.7,1.7,3.7c4.2,0.2,3.5,3.1,3.5,5.6c0,5.6,0,11.2,0,17.1l5.9,1.4
	c0.3,1.7,0.5,3.4,0.8,5.3l5.6,0.9v22.9c5.9,0.1,5.8,3.9,5.6,7.9c-0.2,3.3,0,6.6,0,10.2l6.1,1.2v16.7l6,1.2c0.4,1.6,0.8,3.5,1.2,5.5
	l3.4,0.5l7.6,7.6v9.5l5.7,1.1c0.4,1.7,0.7,3.5,1.2,5.7c4.6-1.7,6.2,0.5,6,4.9l4.7,1.1c0.2,1.8,0.4,3.3,0.7,5.2l5.4,1
	c0.4,1.6,0.8,3.5,1.2,5.5l5,0.8c1,2.6,0.9,6.6,5.7,5c0.3,2.2,0.5,3.8,0.8,5.6l5.8,1.1c-0.8,7.6,0.3,14.2,11,10.7
	c0.5,2.5,1,4.2,1.4,6.3l5.3,0.8c0.3,1.8,0.6,3.5,0.9,5.9c2.3,0,4.6-0.4,6.7,0.1c1.7,0.4,3.2,1.7,4.8,2.7c1.8,1.1,3.4,2.4,5.7,4.1
	c0.1,0.7,0.3,2.2,0.6,4.4l11.6,0.5l0.7,3.7l6.7,6.7c3,2.6,8.2-1.6,11.2,3.7c1.7,3.1,4.3,5.8,7.3,9.9h14.5c-0.4,6.5,3.4,6.8,7.9,6.5
	c3.5-0.2,7,0,10.9,0c0.1,1.8,0.2,3.2,0.3,4.9l5.2,0.8c0.3,1.9,0.6,3.5,0.9,5.9h34.8c0.4,2.2,0.7,3.9,1,5.9H628
	c0.3-1.8,0.6-3.4,1-5.7h16.7c0.5-2.3,0.8-3.9,1.3-6.5c2,0,4.2,0,6.4,0c2.7,0,5.8,0.8,6-3.7c0-0.5,2.2-1.4,3.3-1.5
	c2.4-0.2,4.8-0.1,7.4-0.1c0.4-2.3,0.7-4,1-6.2h11.6c0.4-2.3,0.7-4,1-6.1l10.6-0.6c0.3-1.8,0.6-3.5,1-5.5l4.3-0.8l8.2-9.9l-0.8-1
	l5.5-0.9c0.2-3.5,0.4-6.9,0.6-10.6l6-1.1c0-4.4-0.1-8.9,0.1-13.4c0.1-1.3,1-3.7,1.7-3.7c4.2-0.2,3.5-3.1,3.5-5.6c0-3.9,0-7.7,0-11.8
	l6.1-1.4v-11.1l6.5-1.5c0-2.3-0.4-4.8,0.1-7.1c0.4-1.8,2-3.3,3.1-4.9l1.5,0.7c0.3-1.7,0.6-3.4,1-5.3l5.6-1.1
	c0.2-3.3,0.3-6.7,0.5-10.4l5.5-1.1c0.4-1.6,0.8-3.4,1.3-5.6l10.5-0.5c0.3-2,0.6-3.6,0.9-5.6l5.3-0.9c0.4-1.5,0.7-3,1.2-4.9H784
	c0.4-2.1,0.8-3.7,1.2-6.1h22.9c0.5-2.4,1-4.2,1.5-6.6h5.6h0.1c1.3,0.5,3.1,0.7,3.7,1.6c0.7,1.1,0.4,2.9,0.6,4.4
	c-4.7-0.4-4,3.7-5,6.6c-3.5,0-6.8,0.1-10.1,0c-4-0.2-7.8-0.3-7.9,5.6h-11.3c-0.4,2.1-0.6,3.8-1,5.8l-10.5,0.5l-1.3,5.7l-5,0.7
	l0.6,0.8c-1.8,1.8-3.7,3.6-5.5,5.5l-0.8-0.6l-0.8,5.1l-5.4,0.8c-0.3,1.9-0.6,3.6-0.8,5.3l-6.2,1.4v16.6l-6.1,1.2v10.1l-5.5,1.9v22.7
	l-5.8,1c-0.2,3.6-0.3,7.1-0.5,10.7c-10,0.2-4.3,8.1-6.7,12.5l-4.9,1.6v10.1l-5.5,0.9c-0.5,2-0.8,3.8-1.2,5.5l-5.3,1
	c-0.3,1.9-0.5,3.4-0.7,5.2l-4.6,1.1c-0.2,3.7-0.4,7.1-0.6,10.6l-5.6,0.9c-0.3,1.9-0.6,3.6-0.8,5.3l-5.9,1.4v17.1
	c0,2.6,0.6,5.4-3.6,5.6c-0.6,0-1.6,2.4-1.6,3.7c-0.2,4.5-0.1,9-0.1,13.3l-5.9,1.1v28.5l5.9,1c0,4.5-0.2,8.9,0.1,13.2
	c0.1,1.4,1.2,3.8,2.1,3.9c3,0.4,3.2,2.1,3.1,4.4s0,4.5,0,6.8l6.1,1.4c0.2,4,0.4,7.8,0.6,11.6l4.8,0.7c1.1,1.9,1.9,4.6,3,4.7
	c4.2,0.3,3.6,3,3.6,5.6c0,2.2,0,4.5,0,6.8l4.5,0.7c1.9,2.2,2.9,4.7,4.3,4.8c3.8,0.5,3.8,2.8,3.9,5.6c0.1,3.1-1.8,7.5,4.2,7.7
	c0.4,0,0.7,1.8,1.1,2.7c0.4,1.1,1,2.1,1.8,2.9c2,1.6,4.1,2.9,6.2,4.3l-0.6,1.1l4.6,0.7c0.5,2,0.9,3.8,1.4,6.2
	c10.5-3.3,12,2.9,11,10.7l5.7,1.1c0.3,1.9,0.6,3.6,0.9,5.5l10.6,0.6c0.3,2.1,0.6,3.8,1,6c2.9,0,5.7-0.2,8.5,0.1
	c1.3,0.2,2.5,0.7,3.4,1.6c1.5,1.6,3,3.3,4.3,5.2l0.8-0.6c0.3,1.7,0.6,3.3,1,5h53c-0.4-5.6,2.8-6.2,7-6.1c1.9,0.1,5.3-1,5.5-1.9
	c0.5-3.3,2.5-3.3,4.9-3.3c2.2,0.1,4.4,0,6.5,0c0.5-2.5,0.8-4.2,1.1-5.9l5.4-0.9c0.3-2,0.6-3.6,0.8-5c4-2.5,11.4,2.9,11.8-5.7l5.2-1
	c0-0.6,0.2-1.3,0.4-1.8c0.9-1.3,1.9-2.5,2.9-3.8c0.8,1.3,2.2,2.5,2.2,3.8c0.1,2.6-0.5,5.2-0.9,7.7l-3.9,0.5
	c-0.2,1.7-0.3,3.4-0.6,5.4l-5.6,0.8l-0.5,5.5l-5,0.6c-0.2,1.5-0.5,3.2-0.8,5.1l-5.4,0.8c-0.2,1.6-0.4,3.2-0.6,5.5h-11.4
	c-0.2,2.3-0.3,4-0.5,6l-5.5,0.6c-0.2,1.6-0.4,3.3-0.7,5.5h-17.2c-0.3,2.2-0.5,3.9-0.7,6h-17.4c-0.2,2.2-0.3,3.9-0.5,6.1h-29.7
	c-0.2,2.1-0.4,3.8-0.6,5.8h-29.2c-0.2-1.7-0.4-3.3-0.7-5.9h-12.3v-5.8l-11.1-0.6c-0.3-2.1-0.6-3.8-1-6c-2.6,0-5,0.2-7.4-0.1
	c-1.2-0.1-3.3-0.9-3.3-1.5c-0.1-4.5-3.3-3.7-6-3.7c-2.2,0-4.4,0-6.5,0c-0.3-2.5-0.5-4-0.8-5.8l-4.5-1.1c-0.3-1.9-0.6-3.6-0.9-5.4
	l-5.9-0.9c1.8-6-3.6-4.2-6-5.6c-0.2-1.7-0.4-3.3-0.7-5l-4.5-1.1c-0.3-1.9-0.6-3.6-0.9-5.4l-5.3-0.8l0.8-1.4l-7.4-5.4
	c-0.1-0.7-0.3-2.2-0.5-4l-4.5-1.1c-0.3-1.9-0.6-3.6-0.9-5.3l-5.3-0.8l0.8-1.4l-7.7-5.5v-10l-6.2-1.4v-10.2l-5.4-1.3v-23.1l-5.8-1
	v-23.2l6-1.4c0-4.3-0.1-8.4,0-12.4c0-1.1,0.6-3.2,1-3.2c6.2-0.4,4-5,4.2-8.2c0.2-4-0.1-8.1,0.2-12.1c0.3-1.6,1-3.1,2.2-4.2
	c1.8-1.5,3.7-3,5.7-4.2l-0.7-1l5-1c0.2-4.1,0.4-7.9,0.5-11.5l6.1-1.2v-10l4.9-1.7v-10.1c-4.8-1.9-5.9,0.5-5.6,4.2l-5.2,1
	c-0.4,2-0.7,3.7-1,5.3l-5.4,0.9c-0.3,1.9-0.6,3.6-0.9,5.4l-5.3,0.8c0.2,0.4,0.5,0.8,0.7,1.1l-6.4,5.8c-0.1,0.6-0.5,2.3-0.8,4.1
	l-11.5,0.6c-0.4,2.2-0.7,3.9-0.8,4.5c-2.2,1.6-4.5,2.5-4.7,3.7c-0.5,3-2.2,3.1-4.4,3.1c-4.3-0.1-8.7,0-13,0c-0.6,2.4-1,4.2-1.4,5.8
	h-47.4c-0.4-2.1-0.8-3.8-1.2-5.9h-10.1l-1.9-5.6h-10.1c-0.3-2.2-0.6-3.8-1-5.8l-10.5-0.5c-0.5-2.2-0.9-4-1.3-5.7l-5-0.7l0.6-0.8
	l-6.4-6.4l-0.6-3.6l-5.4-0.8l-0.9-5.5l-5.2-0.8l0.7-0.9l-6.5-6.2c0-0.3-0.3-2-0.6-3.7l-5.4-0.9c-0.3-2-0.6-3.6-0.9-5.5l-5.3-0.8
	c-0.4-2-0.8-3.8-1.1-4.9c-2.3-0.7-4.3-0.8-5.5-1.9c-1.8-1.7-2.9-4-4.3-6.1l-1.1,0.7l-0.9-4.8l-5.5-1.1c-0.2-3.8-0.4-7.2-0.5-10.4
	l-6-1.2V438l-7.7-7.6l-3.4-0.5c-0.5-2-0.9-3.8-1.5-7c-2.2,1.5-5,2.4-5.1,3.6c-0.5,5-0.2,10-0.2,14.9l6,1.2c0.2,3.7,0.4,7.1,0.6,11.1
	c5.2-1.3,6.3,1.7,6.3,5.6l4.5,1.1c1.7,4.8-3,12.6,7,12.8v10.3l6.2,1.4v10.2l5,1.2c0.2,4,0.4,7.8,0.5,11.6l5.7,1
	c0.2,3.7,0.4,7.1,0.6,10.6l6,1c0,2.6-0.2,5,0.1,7.4c0.1,1.2,0.9,3.3,1.5,3.4c4.5,0.1,3.7,3.3,3.8,6c0,2.2,0,4.4,0,6.4l5.9,1.2v40
	l-5.4,1c-1.7,4.4,2.2,11-5.5,12.4c-0.3,0-0.3,2.3-0.3,3.5c0,4.2,0,8.3,0,12.5l-5.9,1.3l-1,5.2l-5.8,1.1v10.2l-4.9,1.2l-0.9,5.4
	l-5.4,0.8l-0.9,5.5l-5.2,0.8l0.7,0.9l-6.5,6.2c0,0.3-0.3,2-0.7,4.3h-10.9c-3.7,9-9.6,13.1-18.5,11.7c-0.5,2.4-0.8,4-1.2,6.3h-16.7
	c-0.4,2.3-0.7,4-1.1,6.2h-28.7l-0.3,5.3h-30.1c-0.2-1.7-0.4-3.4-0.6-5.5h-35.4l-0.4-6h-17.5c-0.2-2.1-0.3-3.8-0.5-6h-17.3
	c-0.2-2.2-0.4-3.8-0.7-5.9h-11.2l-0.8-5.8l-5.3-0.6L251.7,650.8z"/>
<path class="st0" d="M301.5,226c-0.3,1.7-0.6,3.3-1.1,5.7l11,0.5l1.4,6.1c3.9,0,8,0.2,11.9-0.1s5.9,1,5.4,5.3c-0.1,2-0.1,3.9,0,5.9
	l6.3,1.1c0,2.1,0,4.1,0,6.1c0,2.5-0.5,4.9,3.4,5.3c0.8,0.1,1.8,3,1.8,4.6c0.1,16.2,0.1,32.3,0.1,48.5v6l6.1,1.4v34.5
	c6.6,0,7,4,6.5,8.8c-0.2,2.5-0.2,4.9,0,7.4c0,1,0.4,2.8,0.8,2.8c7,0.8,3.8,6.1,4.5,9.7c0.1,0.9,0.1,1.8,0,2.6c-0.3,4,0.1,7.5,6,6.1
	c0.2,4,0.4,7.5,0.6,11.2l6,1.1c0,4.2-0.1,8.5,0,12.8c0,1.3,0.3,3.8,0.8,3.8c6.8,0.9,3.9,6.1,4.5,9.7c0.1,0.5,0.2,1,0.3,1.9l5.9,1.4
	v11.4l6.2,1v16.8l5.4,1.3c0,14.7,0,29.3,0,43.8c0,0.7-0.1,1.9-0.4,2c-7.9,1.7-3.7,8.3-5.2,12.6c0,0.2-0.2,0.3-0.6,0.7l-5.1,0.8
	c-0.2,3.5-0.4,6.9-0.6,10.6l-5,0.8c-3.5,3.5,3.4,11.5-6,11.7c-0.3,1.8-0.5,3.4-0.6,4.1l-7.4,5.2l0.8,1.4l-5.3,0.8
	c-0.3,1.8-0.6,3.4-0.6,3.7l-6.5,6.2l0.7,0.9l-5.2,0.8c-0.3,1.9-0.5,3.6-0.9,5.5l-5.5,0.8c-0.3,1.8-0.5,3.5-0.6,3.6l-6.5,6.4l0.6,1.2
	c-3.8,0-7.6,0.1-11.5,0c-4-0.1-8-0.3-6.7,6l-11.1,0.6c-0.3,1.9-0.6,3.5-1.1,6c-4.4,0-8.9-0.1-13.4,0.1c-1.3,0.1-3.7,1-3.7,1.7
	c-0.1,4.2-3,3.6-5.6,3.6c-4.2,0-8.5,0.2-12.6-0.1s-6.8,0.9-6.5,6h-22.4c0.2-5.7-3.2-6.4-7.8-6c-3.8,0.3-7.7,0.1-11.6,0.1
	c-2.6,0-5.5,0.6-5.6-3.6c0-0.6-2.1-1.5-3.2-1.6c-2.8-0.2-5.5-0.1-8.6-0.1c-0.4-2.2-0.7-3.8-1.1-6l-10.5-0.6l-1.1-5.4
	c-2.4-1-6.5-0.1-6.4-4.9c0-0.5-2.6-1.1-4.4-1.9c-0.2-1.4-0.5-3.1-0.8-5l-5.6-1c-0.2-3.3-0.4-6.8-0.6-10.5l-5.8-1.2
	c-0.1-1.7-0.2-3.5-0.3-5.4c-0.1-2.7,0.8-5.9-3.7-6c-0.6,0-1.4-2.1-1.5-3.3c-0.2-2.4-0.1-4.8-0.1-8h-6.2l-0.4-6l-5.5-0.5
	c-0.2-1.5-0.5-3.2-0.8-5.2l-5.3-0.7c-0.4-6.1-0.7-12.1-1-18l1.3-0.2h11.1l1.2,6.1l10.5,0.5c0.4,2.2,0.7,3.9,1,5.6l5.2,0.9
	c0.8,8.7,8.1,2.8,11.6,5.7c0.4,1.6,0.8,3.4,1.2,5h23.1c0.4-2.2,0.8-3.8,1.2-5.9H227l1.9-5.5H240l1-5.8c1.9-0.1,3.7-0.2,5.4-0.2
	l5.3-0.3c0.4-3.8-0.4-8.4,1.5-10.3s6.5-1.1,10.1-1.5c0.4-1.9,0.8-3.7,1.2-5.4l5.2-1l1-5.3l5.3-0.9c1.5-4.4-2.2-10.9,5.4-12.3
	c0.3-0.1,0.3-2.3,0.3-3.5c0-4.2,0-8.3,0-12.5l6.1-1.4c0.2-4.1,0.4-7.8,0.5-11.4l6.1-1.2v-16.4l4.2-1.4c3.7-6.2-4.2-15.6,6.9-18.3
	v-52.3l-5.9-1.2c0-5.6-0.1-11.1,0-16.5c0.1-4,0.3-7.8-5.6-7.9v-10.2l-6.2-1.4v-10.5c-6,0.5-6.7-3-6.1-7.4s-1-6.4-5.5-5.6
	c-4.1,0.7-6.6-0.7-6.9-5c-9.7-0.5-3.6-8.3-6.5-12.5l-4-0.9c-0.1-9.9-8.3-3.9-12.6-6.6c-0.3-1.1-0.6-2.6-1.1-4.5h-17.5
	c0.1-1.9,0.3-3.8,0.5-6l5.6-0.5c0.3-1.8,0.5-3.6,0.9-5.8h10.8c0.3-1.9,0.6-3.6,1-5.5l5.4-0.6c0.2-1.7,0.5-3.5,0.9-5.8h11.1
	c0.2-2.1,0.3-3.8,0.5-6h11.6c0.3-2,0.5-3.5,0.7-5.4l5.1-1c0.2-1.7,0.4-3.4,0.7-5.6h16.2L301.5,226z"/>
<path class="st0" d="M821,339.5h23.4c0.3,2.3,0.6,4.1,0.9,6.3h17.2c0.2,2,0.5,3.6,0.7,5.7l5.6,1c0.2,1.5,0.3,3,0.5,5.1h11.3
	c0.2,4.2,0.3,8,0.5,12.1l5.5,0.7c0.2,1.6,0.5,3.3,0.7,5.4H899v11.9l5.8,0.7c0.1,1.7,0.2,3.2,0.3,5.1l5.9,0.8v11.4l5.9,0.8v10.9
	l5.8,0.9v11.3l6.3,1v11.1l6,0.6v17.3l5.7,0.7v23.5l6.1,0.6v47.3l-5.5,0.3c-1.9,4.8,2.5,11.8-5.5,13.6c-0.4,0.1-0.3,2.3-0.3,3.5
	c0,3.8,0,7.6,0,11.4l-6.1,1.4c-0.2,3.7-0.4,7.1-0.5,10.4l-5.8,1.2c-0.2,4-0.4,7.8-0.5,11.5l-4.9,0.9c-1.1,2-1.9,4.5-2.8,4.6
	c-4.1,0.3-3.7,2.9-3.7,5.5c0,2.2,0,4.5,0,6.7l-6.1,1.4c-0.2,3.7-0.4,7.1-0.5,10.4l-5.6,1c-0.3,2-0.6,3.6-0.9,5.4
	c-8.8,0.6-2.6,8-5.8,11.6l-4.7,0.8l-1.2,5.5l-5.2,1c-0.4,2-0.8,3.7-1.2,5.8h-10.1l-1.7,4.9h-29.2v-4.9c-9.8,0-19.5-0.2-29.1,0.1
	c-4.6,0.1-8.1-0.3-7.8-6.6h-17c-0.4-2.3-0.7-4-1-5.9l-10.6-0.6c-0.3-2.1-0.6-3.8-0.9-5.2c-4-2.7-11.4,2.9-11.9-5.7l-5.4-1.1
	c-0.2-4.1-0.4-7.8-0.6-11.5l-6.2-1.1v-16.8l-6.2-1.1c0-6.3,0.1-12.4-0.1-18.5c0-1.3-0.9-3.8-1.5-3.8c-4.5-0.2-3.6-3.3-3.7-6
	c-0.1-1.8-0.2-3.7-0.3-5.4l-5.8-1.1c-0.2-3.7-0.4-7.2-0.6-10.5l-6-1.1c0-7.4,0.2-14.6-0.1-21.7c-0.2-4.7-0.2-8.9,6.7-8.8v-16.8
	l6-1.2v-10.1l5.5-1.9V473l5.6-0.9c0.3-1.9,0.6-3.6,0.8-5.3l5.5-1.2l1-5.2l5.4-1c0.2-1.9,0.5-3.4,0.7-5l5.2-1.8v-10.2l6.1-1v-16.7
	l5.8-1.3v-16.8l-5.4-1.1v-16.9l5.9-1.1c-0.1-2.5-0.1-5,0.1-7.5c0.2-1.2,1.4-2.3,2.1-3.5c1-1.5,2.6-2.8,2.9-4.3
	c0.5-2.5,0.1-5.1,0.1-7.8l5.7-0.9c0.4-2,0.8-3.8,1.2-5.5l4.9-0.7l-0.6-0.8l5.5-5.5l0.8,0.6c0.3-1.7,0.5-3.4,0.8-5.2l5.3-0.8
	c0.5-2,0.9-3.8,1.3-6L821,339.5z M857,388.5h-35.4c-1,2.2-1.6,5.5-2.6,5.5c-4.4,0.4-3.7,3.3-3.8,6c0,1.9-0.2,3.7-0.3,5.5l-6.2,1.1
	v16.8l-6.2,1c0,8.2,0.1,16.3-0.1,24.3c0,1.5-0.9,4.3-1.5,4.3c-4.5,0.2-3.7,3.4-3.7,6c0,2.2,0,4.4,0,6.4l-6.1,1.2
	c-0.2,3.7-0.4,7.1-0.6,10.5l-6.1,1.1c1.8,9.6-3,15-11.3,18.5c-0.2,3.6-0.3,7.4-0.5,11l-5.6,1.1v28.5l5.6,1c0.2,3.7,0.4,7.1,0.5,10.6
	l1.4-0.9l6.2,6.7l0.2-0.1l5.4,6.3l4,0.6c0.3,1.9,0.6,3.5,0.8,5.3l6,1.4v10.2l4.8,1.2l-0.8,1l9.6,9.9l3.8,0.7
	c0.3,1.9,0.6,3.6,0.9,5.3l1.4-0.8l5.5,7.8h10.2c0.2,9.6,8.3,2.7,11.7,6.3c0.2,1.4,0.5,3.1,0.8,4.8H875c0.3-2,0.6-3.7,0.9-5.4
	c8.9-0.7,2.8-8,5.8-11.7l4.9-1.1c0.4-2,0.7-3.7,1-5.2l5.8-1.1c-1-10.2-0.9-19.9,11.1-23.5c0.3-1.8,0.7-3.4,0.9-5l5.8-1.1V552
	l7.7-7.7l3.6-0.7v-34.4c-6-1.7-6-1.7-6-7.8c0-8.3,0.1-16.5-0.1-24.8c0-1.4-1.2-3.8-2.1-3.9c-3.5-0.4-3.1-2.7-3.1-4.9v-18.9l-6.1-1.4
	c-0.2-4-0.4-7.8-0.6-11.4l-6-1.2v-10.3l-4.9-1.2c-0.3-1.9-0.5-3.5-0.8-5.4l-5.3-0.8l0.7-0.9L875.5,404c-0.1-0.6-0.4-2.3-0.7-4
	l-5-0.7l-1.8-5.2h-10.1C857.6,392,857.3,390.4,857,388.5L857,388.5z"/>
<path class="st3" d="M227.6,274.1h17.5c0.5,2,0.8,3.4,1.1,4.5c4.3,2.8,12.5-3.3,12.6,6.6l4,0.9c3,4.2-3.2,12,6.5,12.5
	c0.2,4.3,2.7,5.8,6.9,5c4.5-0.8,6.1,1.2,5.5,5.6s0.1,7.9,6.1,7.4v10.5l6.2,1.4v10.2c5.9,0.1,5.7,3.9,5.6,7.9c-0.2,5.4,0,10.8,0,16.5
	l5.9,1.2v52.3c-11.1,2.7-3.2,12-6.9,18.3l-4.2,1.4v16.4l-6.1,1.2c-0.2,3.6-0.3,7.4-0.5,11.4l-6.1,1.4c0,4.1,0,8.3,0,12.5
	c0,1.2,0,3.5-0.3,3.5c-7.6,1.4-3.9,8-5.4,12.3l-5.3,0.9l-1,5.3l-5.2,1c-0.4,1.7-0.8,3.5-1.2,5.4c-3.6,0.4-8.2-0.4-10.1,1.5
	s-1.1,6.5-1.5,10.3l-5.3,0.3c-1.7,0.1-3.4,0.2-5.4,0.2l-1,5.8h-11.1l-1.9,5.5h-16.4c-0.4,2.1-0.8,3.7-1.2,5.9h-23.1
	c-0.4-1.6-0.8-3.4-1.2-5c-3.6-2.9-10.8,3-11.6-5.7l-5.2-0.9c-0.3-1.7-0.6-3.4-1-5.6l-10.5-0.5l-1.2-6.1h-11.1v-17.7h-6.5l0.1,0.1
	c0-1.9,0-3.8,0.2-5.7c0.8-5-1.2-7-6.1-6.3v-71.7l5.8-0.7v-11.2l5.8-1.1v-16.9l6.1-1v-10.9l6.2-0.9v-17.2l5.5-0.6
	c0.2-1.7,0.5-3.4,0.7-5.4l5.4-0.7v-11.1l6.1-0.9c0.2-1.7,0.4-3.4,0.6-5.4l5.7-0.5v-11.5h11.9v-12.1l5.9-0.5c0.2-1.8,0.4-3.5,0.7-5.3
	l4.9-0.8c0.3-1.6,0.5-3.2,0.8-5.1l5.5-0.6c0.2-1.8,0.3-3.5,0.5-5.5l5.5-0.6l0.9-5.5l4.9-0.7l0.7-5.3L227.6,274.1z M168,370.7
	c-0.1,1.9-0.2,3.6-0.3,5.3c0,8.6,0.1,17.2-0.1,25.8c0,1.4-0.9,3.9-1.4,3.9c-4.9,0.2-3.8,3.7-3.8,6.5c0,7.7,0,15.3,0,22.9l-5.9,1
	v23.3l5.9,1c0,3.8,0.2,7.5-0.1,11.1c-0.3,4,0.4,6.9,4.9,6.9l1,5.3h11.6l0.9-5.3c4.2-2.1,11.3,2.8,11.7-3.5l10.9-11
	c0-0.4,0.3-1.9,0.5-3.5l5.7-1.3c0.2-3.7,0.3-7.1,0.5-10.4l5.6-1.1c0.4-2,0.6-3.6,0.8-4.6c2-1.1,3.6-1.7,4.7-2.8
	c1.8-2,3.4-4.1,4.9-6.3l1.3,0.8l0.5-10.3l5.6-0.9c0.3-1.9,0.6-3.6,0.8-5.4l5.9-0.9c-1.5-4.7,2.1-4.7,4.9-5.4l0.9-5.3l5.5-0.9
	l0.6-11.2c5.5,1.5,6.1-2.2,6.5-5.6l5-1.5v-10l5.8-1.3v-40.9l-6.1-1.4v-11.9c-5.3,1.8-5-2.4-6-4.9l-4.9-0.8c-0.5-2-0.9-3.8-1.2-5.4
	h-23.1c-0.4,2.1-0.8,3.8-1.2,5.9H217c-0.7,2-1.2,3.5-1.4,4.3c-4.5,2.9-12.3-3-12.4,6.8l-5,1.1c0.2,2.7,0.1,5.3-0.1,8
	c-0.4,1.3-1.4,2.4-2.7,2.9c-3,0.7-7.4-0.2-8.8,1.5c-1.7,2.2-0.9,6.3-1.2,9.6c-0.1,0.3-0.2,0.6-0.4,0.9l-0.6-0.6
	c-1.8,1.9-3.6,3.7-6.3,6.5l-4.1,0.7v11.5L168,370.7z"/>
<path class="st1" d="M821,339.5h-11.3c-0.5,2.1-0.9,4-1.3,6l-5.3,0.8c-0.3,1.8-0.5,3.5-0.8,5.2l-0.8-0.6l-5.5,5.5l0.6,0.8l-4.9,0.7
	c-0.4,1.8-0.8,3.5-1.2,5.5l-5.7,0.9c0,2.7,0.4,5.4-0.1,7.8c-0.3,1.6-1.9,2.9-2.9,4.3c-0.8,1.1-2,2.2-2.1,3.5c-0.2,2.5-0.2,5-0.1,7.5
	l-5.9,1.1v16.9l5.4,1.1v16.8l-5.8,1.3v16.7l-6.1,1v10.1l-5.2,1.8c-0.2,1.6-0.4,3.1-0.7,5l-5.4,1l-1,5.2l-5.5,1.2
	c-0.3,1.7-0.5,3.4-0.8,5.3l-5.6,0.9V483l-5.5,1.9V495l-6,1.2V513c-6.9,0-6.9,4.1-6.7,8.8c0.3,7.2,0.1,14.3,0.1,21.7l6,1.1
	c0.2,3.3,0.4,6.8,0.6,10.5l5.8,1.1c0.1,1.7,0.2,3.5,0.3,5.4c0.1,2.7-0.8,5.8,3.7,6c0.6,0,1.5,2.5,1.5,3.8c0.2,6.1,0.1,12.2,0.1,18.5
	l6.2,1.1v16.8l6.2,1.1c0.2,3.7,0.4,7.5,0.6,11.5l5.4,1.1c0.4,8.6,7.9,3,11.9,5.7c0.2,1.4,0.5,3.1,0.9,5.2l10.6,0.6
	c0.3,1.9,0.6,3.6,1,5.9h17c-0.3,6.2,3.2,6.7,7.8,6.6c9.6-0.3,19.2-0.1,29.1-0.1v4.9h29.2l1.7-4.9h10c0.4-2.1,0.8-3.7,1.2-5.8l5.2-1
	l1.2-5.5l4.7-0.8c3.2-3.6-3-11,5.8-11.6c0.3-1.8,0.6-3.4,0.9-5.4l5.6-1.1c0.2-3.3,0.3-6.7,0.5-10.4l6.1-1.4c0-2.2,0-4.5,0-6.7
	c0-2.7-0.4-5.3,3.7-5.5c0.9-0.1,1.6-2.6,2.8-4.6l4.9-0.9c0.2-3.7,0.4-7.5,0.5-11.5l5.8-1.2c0.2-3.2,0.3-6.7,0.5-10.4l6.1-1.4
	c0-3.8,0-7.6,0-11.4c0-1.2,0-3.4,0.3-3.5c8-1.8,3.7-8.8,5.5-13.6l5.5-0.3v24.1l-5.9,0.6v22.4l-5.7,0.7v17.2l-6.1,0.8v11.3l-6.3,1
	v11.2l-5.8,0.7v11.1l-5.8,0.7c-0.2,1.9-0.3,3.6-0.5,5.6l-5.6,0.4c-0.2,1.8-0.5,3.6-0.8,5.7l-5.4,0.7v10.9l-5.9,0.9
	c0,2.8,0.2,5.7-0.1,8.6c-0.1,0.9-1.2,1.8-1.9,2.7c0.3-2.6,1-5.2,0.9-7.7c0-1.3-1.5-2.5-2.2-3.8c-1,1.3-2,2.5-2.9,3.8
	c-0.2,0.6-0.4,1.2-0.4,1.9l-5.2,1c-0.4,8.6-7.8,3.1-11.8,5.7c-0.2,1.4-0.5,3.1-0.8,5l-5.4,0.9c-0.3,1.7-0.6,3.4-1.1,5.9
	c-2.1,0-4.3,0-6.5,0c-2.4-0.1-4.3-0.1-4.9,3.3c-0.2,1-3.6,2-5.5,1.9c-4.2-0.1-7.4,0.4-7,6.1h-53c-0.3-1.7-0.6-3.4-1-5l-0.8,0.6
	c-1.3-1.8-2.8-3.5-4.3-5.2c-0.9-0.9-2.2-1.4-3.4-1.6c-2.8-0.2-5.5-0.1-8.5-0.1c-0.4-2.2-0.7-3.9-1-6l-10.6-0.6
	c-0.3-1.9-0.6-3.5-0.9-5.5l-5.7-1.1c1-7.9-0.5-14-11-10.7c-0.5-2.4-1-4.2-1.4-6.2l-4.6-0.7l0.6-1.1c-2.1-1.4-4.2-2.7-6.2-4.3
	c-0.8-0.8-1.4-1.8-1.8-2.9c-0.5-0.9-0.7-2.6-1.1-2.7c-5.9-0.2-4-4.6-4.2-7.7c-0.1-2.8-0.1-5.1-3.9-5.6c-1.4-0.2-2.4-2.6-4.3-4.8
	l-4.5-0.7c0-2.4,0-4.6,0-6.8c0-2.6,0.6-5.3-3.6-5.6c-1-0.1-1.8-2.8-3-4.7l-4.8-0.7c-0.2-3.8-0.4-7.5-0.6-11.6l-6.1-1.4
	c0-2.3-0.1-4.5,0-6.8s-0.1-4-3.1-4.4c-0.9-0.1-2-2.5-2.1-3.9c-0.3-4.3-0.1-8.7-0.1-13.2l-5.9-1v-28.5l5.9-1.1
	c0-4.4-0.1-8.9,0.1-13.3c0.1-1.3,1-3.7,1.6-3.7c4.2-0.2,3.6-3,3.6-5.6v-17.1l5.9-1.4c0.3-1.7,0.5-3.3,0.8-5.3l5.6-0.9
	c0.2-3.5,0.4-6.9,0.6-10.6l4.6-1.1c0.2-1.8,0.5-3.3,0.7-5.2l5.3-1c0.4-1.6,0.8-3.5,1.2-5.5l5.5-0.9v-10.1l4.9-1.6
	c2.3-4.3-3.3-12.3,6.7-12.5c0.2-3.6,0.3-7,0.5-10.7l5.8-1v-22.7l5.5-1.9v-10.1l6.1-1.2V371l6.2-1.4c0.3-1.7,0.5-3.4,0.8-5.3l5.4-0.8
	l0.8-5.1l0.8,0.6c1.8-1.8,3.7-3.7,5.5-5.5l-0.6-0.8l5-0.7l1.3-5.7l10.5-0.5c0.3-2,0.6-3.7,1-5.8h11.4c0.1-5.9,3.9-5.8,7.9-5.6
	c3.3,0.2,6.6,0,10.1,0c1-3,0.3-7,5-6.6c-0.1-1.5,0.2-3.3-0.6-4.4c-0.6-0.9-2.4-1.1-3.7-1.6l5.7,0.3L821,339.5z"/>
<path class="st4" d="M372.3,686.7l0.3-5.3h28.7c0.4-2.2,0.7-3.9,1.1-6.2h16.7c0.5-2.2,0.8-3.9,1.2-6.3c8.9,1.4,14.8-2.7,18.5-11.7
	h10.9c0.4-2.3,0.7-3.9,0.7-4.3l6.5-6.2l-0.7-0.9l5.2-0.8l0.9-5.5l5.4-0.8l0.9-5.4l4.9-1.2v-10.3l5.8-1.1l1-5.2l5.9-1.3
	c0-4.1,0-8.3,0-12.5c0-1.2,0-3.5,0.3-3.5c7.7-1.4,3.8-8,5.5-12.4l5.4-1v-40.1l-5.9-1.2c0-2,0-4.2,0-6.4c0-2.7,0.7-5.8-3.8-6
	c-0.5,0-1.4-2.2-1.5-3.4c-0.2-2.4-0.1-4.8-0.1-7.4l-6-1c-0.2-3.5-0.4-6.9-0.6-10.6l-5.7-1c-0.2-3.8-0.4-7.5-0.5-11.6l-5-1.2v-10.2
	l-6.2-1.4v-10.3c-10-0.2-5.3-7.9-7-12.8l-4.5-1.1c0-3.9-1.1-6.9-6.3-5.6c-0.2-4-0.4-7.4-0.6-11.1l-6-1.2c0-4.8-0.3-9.9,0.2-14.9
	c0.1-1.2,2.9-2.1,5.1-3.6c0.7,3.2,1.1,5,1.5,7l3.4,0.5l7.6,7.6v9.5l6,1.2c0.2,3.3,0.3,6.7,0.5,10.4l5.5,1.1l0.9,4.8l1.1-0.7
	c1.4,2.1,2.5,4.4,4.3,6.1c1.1,1.1,3.2,1.2,5.5,1.9c0.2,1.1,0.6,2.9,1.1,4.9l5.3,0.8c0.3,1.8,0.5,3.5,0.9,5.5l5.4,0.9
	c0.3,1.7,0.6,3.4,0.6,3.7l6.5,6.2l-0.7,0.9l5.2,0.8l0.9,5.5l5.4,0.8l0.6,3.6l6.5,6.4l-0.6,0.8l5,0.7c0.4,1.7,0.8,3.5,1.3,5.7
	l10.5,0.5c0.3,2,0.6,3.7,1,5.8h10.1l1.9,5.5h10.1c0.4,2.1,0.8,3.7,1.2,5.9h47.4c0.4-1.7,0.8-3.5,1.4-5.8c4.3,0,8.7,0,13,0
	c2.3,0,4-0.1,4.4-3.1c0.2-1.2,2.5-2.1,4.7-3.7c0.1-0.6,0.4-2.3,0.8-4.5l11.5-0.6c0.3-1.8,0.7-3.5,0.8-4.1l6.4-5.8
	c-0.2-0.4-0.5-0.7-0.7-1.1l5.3-0.8c0.3-1.8,0.6-3.5,0.9-5.4l5.4-0.9c0.3-1.7,0.6-3.4,1-5.3l5.2-1c-0.3-3.7,0.8-6.1,5.6-4.2v10.1
	l-4.9,1.7V513l-6.1,1.2c-0.2,3.6-0.3,7.3-0.5,11.5l-5,1l0.7,1c-2,1.3-3.9,2.7-5.7,4.2c-1.2,1.1-2,2.6-2.2,4.2
	c-0.3,4,0.1,8.1-0.2,12.1c-0.2,3.2,2,7.8-4.2,8.2c-0.4,0-1,2.1-1,3.2c-0.1,4,0,8.1,0,12.4l-6,1.4v23.2l5.8,1v23.1l5.4,1.3v10.2
	l6.2,1.4v10l7.7,5.5l-0.8,1.4l5.3,0.8c0.3,1.7,0.6,3.4,0.9,5.3l4.5,1.1c0.2,1.8,0.5,3.3,0.5,4l7.4,5.3l-0.8,1.4l5.3,0.8
	c0.3,1.8,0.6,3.4,0.9,5.4l4.5,1.1c0.2,1.8,0.5,3.3,0.7,5c2.4,1.4,7.8-0.5,6,5.6l5.9,0.9c0.3,1.8,0.6,3.5,0.9,5.4l4.5,1.1
	c0.2,1.8,0.5,3.3,0.8,5.8c2.2,0,4.4,0,6.5,0c2.7,0,5.9-0.8,6,3.7c0,0.5,2.1,1.4,3.3,1.5c2.4,0.2,4.8,0.1,7.4,0.1
	c0.4,2.3,0.7,3.9,1,6l11.1,0.6v5.7l-16.9-0.2c0-0.3-0.2-0.5-0.5-0.6c-0.2-1.6-0.3-3.1-0.5-5.1h-17.4c-0.2-2.1-0.3-3.8-0.5-5.7
	l-5.1-0.5c-0.2-1.7-0.5-3.3-0.8-5.5h-11.5c-0.3-2.3-0.5-4.1-0.7-6.3h-11.2c-0.1-2-0.2-3.7-0.4-5.6l-5.8-0.8
	c-0.1-1.6-0.2-3.1-0.4-5.1l-5.3-0.7c-0.3-1.7-0.5-3.5-0.9-5.7h-11.2c-0.3-2.1-0.5-3.9-0.8-6.2l-5.6,0.5c-0.2-1.9-0.3-3.8-0.3-5.8
	c0.3-4,0-7.4-5-7.3c-0.3-1.9-0.5-3.4-0.8-5.2l-4.6-0.7c-1.2-2-1.9-3.7-3.1-4.9c-1.9-1.6-3.8-3.1-5.9-4.5c0.6-0.7,1.2-1.3,1.8-2
	c-5.2,1.1-6.1-1.4-5.6-5c0.7-4.8-0.6-8.2-6.7-8.3v-16.8l-6-1.2v-10.3l-4.9-1.2c-0.3-1.9-0.5-3.5-0.8-5.8h-30.1
	c-4.3-1.1-10.7,3.2-12.6-4.8c-0.1-0.4-2.2-0.5-3.4-0.5c-6.3,0-12.5,0-18.8,0V579h-6c-0.2-1.9-0.3-3.8-0.5-5.8h-5.2l-0.5,5.4l-6,0.7
	v11.2l-5.8,0.8c-0.2,2-0.3,3.6-0.4,5.3l-5.8,0.8v11.2h-5.2c-0.5,2.3-0.8,4.1-1.2,5.9l-5.5,0.9c-0.2,3.7-0.3,7-0.5,10.7
	c-4.9-0.1-6,2.8-6.1,6.7l-4.8,0.3c-0.4,2.3-0.7,4-1,5.5l-5.4,1c-0.3,1.9-0.6,3.6-0.9,5.3l-5.5,0.9c-0.1,1.8-0.2,3.3-0.3,4.8
	l-4.8,0.3l-1,5.5l-5.4,1l-0.9,5.5l-10.8,0.5c-0.1,1.9-0.2,3.5-0.3,5h-12.1c-0.2,2.5-0.3,4.2-0.5,6.2h-11.4c-0.2,2.1-0.3,3.9-0.5,6.2
	h-11.4c-0.2,2-0.3,3.7-0.5,5.6L372.3,686.7z"/>
<path class="st5" d="M599.2,866.9h5.7v17.5l5.9,0.9v17.3l6,0.5v12.4l-5.8,0.3v22.3l5.8,1.3c0.2,4,0.4,7.8,0.6,11.8h6.2l0,0
	c-1,4.2,0.7,6,4.9,5.7c0,4,0.1,8,0.1,12h-4.8c-0.4-2.2-0.7-3.9-1.1-5.9l-5.7,0.4v17.5h-5.9v23.8l5.5,1c0.3,1.9,0.6,3.6,0.8,4.6
	c2.3,1.1,5.5,1.8,5.6,2.8c0.3,4.1,3,3.6,5.5,3.8l1.1,6.2h5c0.2,1.9,0.5,3.7,0.7,5.8l5.7,0.4v11.2l5.9,0.8v5.5l-5.4,0.6
	c-0.2,1.7-0.3,3.3-0.5,5.3h-47.7l-0.7-5.4h-11.1c-0.2-2.2-0.4-4-0.6-6.1l-5.6-0.4c-0.2-1.8-0.5-3.6-0.7-5.7h-11
	c-0.3-1.9-0.5-3.5-0.8-5.7h-11.4c-0.3-2.3-0.6-4.1-0.8-6.1l-5.2-0.4c0.1-2.6,0.1-5.3-0.1-7.9c-0.2-1.2-1.3-3.2-2.1-3.3
	c-3.1-0.3-3.1-2.2-3.1-4.4c0-2.8,0-5.6,0-8.4c-0.2-2.5-0.1-4.9,0.1-7.4c0.3-1.5,1.6-2.8,2.4-4.2c0.9,1.3,2.5,2.6,2.6,4
	c0.3,4.3,0.1,8.7,0.1,13.2l5,1.2c0.2,3.7,0.4,7.1,0.6,10.6l5.5,0.9c0.3,1.9,0.6,3.6,1,5.9c2.5,0.2,4.9,0.1,7.4-0.1
	c1.3-0.2,3.5-1.6,3.5-2.5c0-2.9-0.4-8.2-1.3-8.4c-4.7-0.8-3.6-3.9-3.7-6.7c-0.1-2,0-4.1,0-6l-6-1.1c-0.2-3.7-0.4-7.1-0.6-10.6
	l-5.7-1c-0.1-1.8-0.2-3.3-0.3-4.9c-0.1-3.2,1.1-7-4.1-7.6c-0.4,0-0.7-0.7-1-1.1c-1-1.3-2-2.6-3-3.8l-3.7,4.3c-1.7,1-3.4,2.1-4.9,3.4
	c-1.5,1.6-2.8,3.4-4,5.2l-1.2-0.7c-0.3,1.7-0.5,3.3-0.8,5l-5.7,1.3c-0.2,3.6-0.3,6.9-0.5,10.3l-5.8,1.3c-0.2,1.8-0.5,3.4-0.7,5.1
	l-4.5,1.1l0.8,1l-9.6,9.9l-3.8,0.7c-0.3,1.9-0.6,3.6-0.9,5.3l-1.4-0.8c-1.2,1.6-2.4,3.3-3.5,4.9c-0.5,0.9-1.1,1.7-1.8,2.4
	c-2,1.5-4.1,2.9-6.2,4.4l0.6,1.4h-16.8v6.3h-18v6.2h0h-2c-2.2,0-4.4,0.2-6.6,0c-3.3-0.3-4.2,1.3-3.9,4.3c-1.8,0.4-3.7,0.7-5.5,0.9
	c-11.6,0.2-23.1,0.2-34.7,0.3l0,0c-2-4.2-0.5-5.8,4-5.4c2,0.2,4.1,0,6.1,0c0.4-2.4,0.7-4.1,1.1-6.3h23c0.5-2.4,1-4.2,1.5-6.3
	c2.5,0.1,5,0.1,7.6-0.1c1.1-0.1,3-1.2,3.1-1.8c0.2-3.9,2.8-3.4,5.2-3.4h6.1c0.4-2.4,0.7-4.1,1.1-6.4h11.4l1.3-5.6
	c4.2-2.2,11.1,2.9,11.6-5.5l5.3-1c0.3-1.9,0.6-3.6,0.9-5.6c5.8,0.7,4.7-3.3,4.8-6.5c3.8,0.3,7.5,0.3,6.3-5.3l5.8-1.7
	c-0.2-0.4-0.5-0.8-0.7-1.2c1.8-1.2,3.6-2.3,5.3-3.6c0.8-0.6,1.4-1.3,2-2.1c1.4-1.9,2.8-3.8,4.2-5.7l1,0.7l0.9-5
	c1.9-0.2,3.4-0.5,5.2-0.7c0.3-1.6,0.6-3.1,1-4.7c10.1-0.1,3.8-8.3,6.6-12.3l4.9-1.6v-16.4l6.1-1v-11.1l5.2,0.4c0,6.2,0,11.8,0,17.4
	c0,3-1.1,6.6,4,6.8c0.5,0,1.2,2.3,1.2,3.5c0.2,4.5,0,9,0,13.5l6.1,1c0.2,3.7,0.4,7.1,0.6,11.1h6v11.3c10.7-0.2,4.3,8.1,7,12.4
	c8.5,0.4,2.7,7.9,5.7,12.2h5.2v11.9l6.3,1.5c0.1,1.8,0.1,3.6,0,5.4c-0.6,4.5,1.3,5.8,5.6,5.5c3.9-0.3,7.9-0.1,11.8-0.1
	c0.4,2.5,0.7,4.2,1,6h17c0.3-2,0.6-3.7,1-6c2.7,0,5.4,0.3,7.9-0.1c1.2-0.2,2.9-1.9,3-2.9s-1.7-2.3-2.8-3.2c-0.6-0.4-1.7-0.3-2.5-0.4
	l0.6-0.8l-6.5-6.5c0-0.3-0.3-1.9-0.5-3.4l-5.5-1.2l-1-5.3l-5-0.7l0.6-0.8l-6.9-6.8v-15.3h-6c0-8.1,0-16.2,0-24.3l5.9-0.3v-17.5h-5.9
	c-5.2,0.9-7.3-1.2-6.4-6.4v-6.3l6.4-0.3v-17.6l0,0h6.2v-29l-6.3-1.1v-12.1h-6.2l-0.1-11.5L599.2,866.9z"/>
<path class="st6" d="M641.3,675v11.6l-6.2,0.6v11.6l-6.3,0.6v23.3l-5.7,0.7v11.3l-6,0.4v11.4l-6.1,0.5v11.6l-5.8,0.7v35.1l-6.4,0.9
	v17.7h-5.5c-1.8,4.8,2.2,11.3-5.5,12.7c-0.3,0.1-0.5,2.3-0.4,3.5c0.4,4.7,0.3,9-6.5,8.6v16.7c-0.8,0.1-1.6,0.3-2.4,0.6
	c-1.3,0.9-2.5,2-3.7,3c1.2,0.8,2.5,1.6,3.9,2.3c0.8,0.2,1.7,0.3,2.6,0.2v11.9l-6.4,1v11.1c-0.1,1.9-0.2,3.7-0.3,5.8l-4.8,1.1
	c0.5,4.6-2.1,6.2-6.3,6.2c-0.1,1.9-0.2,3.4-0.3,4.9h-5.6c-0.5,2.4-0.9,4.2-1.3,5.9h-10.5c-0.4-2.1-0.7-3.8-1-5.7
	c-5.8,0.7-4.7-3.3-4.7-6.5l0,0c4.2,0.7,6-1.1,5.2-5.3c0-3-0.1-6,0.1-9c0.1-1.3,0.7-2.5,1.5-3.4c1.6-1.5,3.3-2.9,5.1-4.2
	c-0.2-0.3-0.4-0.6-0.6-0.9l5.2-0.9c0.2-4,0.3-7.8,0.5-11.6l6-1c0-2.6-0.2-5,0.1-7.5c0.1-1.2,1-3.3,1.5-3.3c4.5-0.1,3.7-3.3,3.8-6
	c0.1-1.9,0.2-3.7,0.3-5.5l6.2-1.2V819l6.1-1.1c0-2,0-3.7,0-5.4s0.2-3.4,0.3-5l5.8-1.3c-1.8-18.3,0.6-16,5.6-18.5v-28.3h6.3v-11.9
	l6.3-1.5c0-6.5-0.1-12.8,0.1-19.1c0-1.4,1.1-4,1.8-4.1c3.8-0.3,3.4-2.8,3.4-5.3c0-2,0-4.1,0-6.1l5.9-1c0.3-1.9,0.6-3.6,0.8-5.3
	l5.9-1.3c0-5.9,0-11.5,0-17.1c0-2.6-0.6-5.5,3.6-5.6c0.6,0,1.5-1.7,1.6-2.7c0.2-2.9,0.1-5.9,0.1-8.8l-1.1,0.6l-6.5-6.5l-4-0.6v-5.8
	h11c0.5,2.6,0.8,4.3,1.2,5.9l5.5,1c0.2,3.7,0.4,7.1,0.6,11.1L641.3,675z"/>
<path class="st7" d="M413.4,1016.9l-17.9-0.2c-0.8-10.6,8-4.2,11.9-6.9c0.6-1.3,1.2-4.1,2-4.1c5-0.2,4-3.8,4.2-6.7
	c3.9,0.4,6.9-0.3,6.8-4.9l5.4-1c0.3-1.9,0.6-3.6,0.9-5.4l5.8-0.9v-5.8l5.3-0.3v-5c0.6-2.1,1.3-6,1.9-5.9c5.5,0.2,4.4-3.5,4.4-6.7
	l6.3-0.3v-11.3l0,0l5-0.4v-23.6l-5-0.2c-0.1-2-0.2-4-0.3-6.4h-5.9c-0.1-1.7-0.2-3.4-0.4-5.3l-5.6-0.4v-41.6l5.6-0.5v-35.4l6-0.8
	v-23.1l5.9-0.7v-23.5l6.3-0.7v-17.5l6-0.4V753h11.9v11l-6.3,1.4c0,4.6,0.2,8.9-0.1,13.3c-0.1,1.3-1.4,2.6-2.2,3.9
	c-1,1.5-2.8,2.9-2.8,4.4c-0.3,8.7-0.1,17.5-0.1,26.2h-6.5v17.4l-6.2,1.2v6c0,10.3,0.1,20.7-0.1,31c0,1.5-1.3,3-2.2,4.4
	s-2.8,2.9-2.9,4.4c-0.3,8.4-0.1,16.8-0.1,25.2c-0.5,4-0.3,7.4,5.3,6.3l0.2,5.5v6.2h6.2c0,5.6,0.2,11.2-0.1,16.8
	c-0.2,4.5-0.4,8.6,6,7.9c0.4,2,0.6,3.7,0.9,5.4l1.6-0.8c1.4,2,3.5,3.9,4.1,6.2c1.1,4.5-1.3,7.2-6.2,7.4v5.6l-5.9,0.3l-1,5.7
	l-4.9,0.7l0.6,0.8l-6.6,6.5c0,0.4-0.1,2.2-0.2,3.9l-5.8,0.3c-0.3,2.1-0.5,3.8-0.8,5.7l-5.9,0.9c1.6,4.9-2.4,4.8-5,5.6
	c-0.4,2-0.7,3.7-0.9,5.2l-5.3,1c-0.4,2-0.7,3.7-1.1,5.7c-2.2,0.1-4.3,0.1-6.5,0C414.5,1010.7,412.9,1012.7,413.4,1016.9z"/>
<path class="st8" d="M468.3,1041v-6.1H485l-0.6-1.4c2.1-1.4,4.2-2.8,6.2-4.4c0.7-0.7,1.3-1.5,1.8-2.4c1.2-1.6,2.4-3.3,3.5-4.9
	l1.4,0.8c0.3-1.7,0.6-3.4,0.9-5.3l3.8-0.7l9.6-9.9l-0.8-1l4.5-1.1c0.2-1.8,0.5-3.3,0.7-5.1l5.8-1.3c0.2-3.3,0.3-6.6,0.5-10.3
	l5.7-1.3c0.3-1.7,0.5-3.4,0.8-5l1.2,0.7c1.2-1.8,2.5-3.6,4-5.2c1.5-1.3,3.2-2.4,4.9-3.4l3.7-4.3c1,1.3,2,2.6,3,3.8
	c0.3,0.4,0.6,1,1,1.1c5.1,0.5,3.9,4.4,4.1,7.6c0.1,1.5,0.2,3.1,0.3,4.9l5.7,1c0.2,3.5,0.4,6.9,0.6,10.6l6,1.1c0,1.9,0,3.9,0,6
	c0.1,2.8-1,5.9,3.7,6.7c1,0.2,1.3,5.5,1.3,8.4c0,0.9-2.2,2.2-3.5,2.5c-2.5,0.2-4.9,0.3-7.4,0.1c-0.4-2.3-0.7-3.9-1-5.9l-5.5-0.9
	c-0.2-3.5-0.4-6.9-0.6-10.6l-5-1.2c0-4.5,0.2-8.9-0.1-13.2c-0.1-1.4-1.7-2.7-2.6-4c-0.8,1.4-2.2,2.7-2.4,4.2
	c-0.2,2.4-0.3,4.9-0.1,7.4l-5.8,0.3c-0.4,2.3-0.7,4-0.9,4.9c-2,1.1-3.7,1.6-4.7,2.7c-1.7,2-3.3,4-4.7,6.2l-1.5-0.8l-0.3,4.6
	l-5.8,0.6c-0.2,1.9-0.3,3.6-0.5,5.6h-11.1l-0.7,6l-5.5,0.5l-0.8,5.2l-5,0.7c-0.2,1.8-0.5,3.5-0.8,5.7L468.3,1041z"/>
<path class="st8" d="M491.5,998.8c0,3.3,1,7.2-4.8,6.5c-0.3,1.9-0.6,3.6-0.9,5.6l-5.3,1c-0.5,8.5-7.4,3.3-11.6,5.5l-1.3,5.6h-11.4
	c-0.4,2.3-0.7,3.9-1.1,6.4H449c-2.4,0-5-0.5-5.2,3.4c0,0.7-1.9,1.7-3.1,1.8c-2.5,0.2-5,0.2-7.6,0.1c-0.5,2.1-0.9,3.9-1.5,6.3h-23
	c-0.4,2.3-0.7,3.9-1.1,6.3c-2.1,0-4.1,0.2-6.1,0c-4.5-0.4-6,1.2-4,5.4c-0.8-3.7-1.6-7.3-2.5-11.3l6.7-0.6v-11.4l6.1-0.6
	c0.2-1.8,0.3-3.5,0.5-5.7H437l1.3-6l5.1-0.7c0.4-1.5,0.7-3,1-4.5l1.2,0.9l6.2-6.7l-0.7-1.2h16.5c0.4-2.3,0.7-4,1-5.9
	c5.8,0.7,4.7-3.3,4.7-6.5l12.7,1l6.3,0.1C492.2,995.3,491.8,997,491.5,998.8z"/>
<path class="st9" d="M641.3,675h-6.1c-0.2-4-0.4-7.4-0.6-11.1l-5.5-1c-0.3-1.6-0.6-3.2-1.2-5.9h-11c-0.1-1.5-0.2-3.1-0.3-5
	c-4.3,0.2-6.7-1.7-6.3-6l-4.6-1.3c-0.3-2-0.6-3.6-1-5.3l-5.8-1v-11.8l-6.2-0.4l-0.1-5.3c0.1-2,0.2-4,0.3-5.8l6-1.2v-23.5h5.8
	c0.3,2.2,0.6,3.9,0.8,5.8l4.9,1.2v10.3l6,1.2v16.7c6.1,0.1,7.4,3.5,6.7,8.3c-0.5,3.5,0.4,6,5.6,5c-0.6,0.7-1.2,1.3-1.8,2
	c2.1,1.4,4,2.9,5.9,4.5c1.2,1.2,1.9,2.9,3.1,4.9l4.6,0.7c0.3,1.7,0.5,3.3,0.8,5.2c5,0,5.3,3.4,5,7.3c0,1.9,0.1,3.8,0.3,5.8v5.6
	L641.3,675z"/>
<path class="st10" d="M479.9,753h-6.3v-23.8l6-0.5v-23.3l-5.7-0.8v-11.3l-5.7-0.7v-11.2l-5.8-0.5c-0.2-1.7-0.4-3.6-0.7-5.7l-5.4-0.5
	c-0.2-1.7-0.5-3.5-0.8-5.6l-5.1-0.5c0.1-1.5,0.2-3.1,0.3-5l10.8-0.5l0.9-5.5l5.4-1l1-5.5l4.8-0.3c1,4.9-3.3,12.1,6.1,13.4
	c0.1,1.6,0.2,3.2,0.3,4.7v11.9l6,1.1c0.1,1.8,0.2,3.3,0.3,4.8v12.6h5.4c0.3,1.8,0.6,3.6,0.9,5.4c-0.3,6.3-0.7,12.6-1,18.9
	c0,3.9,0,7.7,0,11.6c-5.6-1.1-5.6,2.5-5.3,6.3l-0.1,6.2C482.4,747.5,478.8,747.6,479.9,753z"/>
<path class="st11" d="M473.6,992.5c0,3.2,1,7.2-4.7,6.5c-0.3,1.9-0.6,3.6-1,5.9h-16.5l0.7,1.2l-6.2,6.7l-1.2-0.9
	c-0.3,1.5-0.7,3-1,4.5l-5.1,0.7l-1.3,6h-23.6c0-2,0-4.1,0-6.1c-0.5-4.2,1.1-6.2,5.6-5.6c2.2,0.1,4.3,0.1,6.5,0
	c0.4-2,0.7-3.7,1.1-5.7l5.3-1c0.3-1.5,0.6-3.2,0.9-5.2c2.6-0.8,6.7-0.7,5-5.6l5.9-0.9c0.3-1.9,0.5-3.6,0.8-5.7l5.8-0.3
	c4.2,0,8.4,0.2,12.5,0c3.6-0.2,6.2,0.4,5.8,5.1L473.6,992.5z"/>
<path class="st12" d="M444.2,920.7h5.9c0.1,2.3,0.2,4.3,0.3,6.4v24.2l0,0c-5.4-1.1-7.1,1.4-6.4,6.5c0.1,1.7,0.1,3.4,0,5.1
	c0,3.1,1,6.8-4.4,6.7c-0.6,0-1.2,3.9-1.9,5.9c-4.2-0.7-6,1.1-5.3,5.3v5.8l-5.8,0.9c-0.3,1.8-0.6,3.4-0.9,5.4l-5.4,1
	c0.1,4.6-3,5.3-6.8,4.9l-0.1-0.1c-0.8-4.6,1.3-6.8,6.3-6.7v-22.5l6.1-0.6c0.2-2.2,0.3-4.1,0.4-5.9l6.3-0.3c0-7.7,0.3-15-0.1-22.3
	c-0.2-4.2,0.7-7,5.2-7.7c0.1-0.5,0.2-1,0.3-1.5c0.3-1.3,0.5-2.7,0.8-4l5-0.4L444.2,920.7z"/>
<path class="st13" d="M629.6,1023c-0.4-2.1-0.8-4.1-1.1-6.2l6.4-1.2l11.8,1.5c-1.4-6.9,2.3-7.1,6.5-6.8c1,0.2,2.1,0.2,3.1-0.1
	c1-0.6,2-1.4,2.8-2.3c-0.9-1-1.8-2.6-2.8-2.8c-3.1-0.2-6.2-0.3-9.3-0.1l-1-6.1l-10.8-0.5c-0.1-1.9-0.2-3.5-0.3-5l6-1.7l0.3-4.8
	l5.5,0.3c0.2,1.8,0.5,3.4,0.7,5.3l5.1,0.4c0.2,1.9,0.5,3.7,0.7,5.8h11.4c0.3,2.1,0.6,4,0.9,6.1h17.1c0.3,1.9,0.6,3.5,0.9,5.6
	l5.2,0.7c0.1,1.8,0.2,3.4,0.3,5.6h-59.5V1023z M671.1,1016.7L671.1,1016.7c0.7,0,1.5,0.2,2.1,0c1.4-0.9,2.7-1.8,3.9-2.8
	c-1.2-0.8-2.3-2.1-3.7-2.4c-1.7-0.4-3.5-0.4-5.2,0c-1,0.2-2.4,1.5-2.4,2.4s1.2,2.1,2.2,2.7C668.8,1017.1,670,1016.7,671.1,1016.7
	L671.1,1016.7z"/>
<path class="st9" d="M581.3,860.8c-0.9,0.1-1.8,0-2.6-0.2c-1.3-0.7-2.6-1.4-3.9-2.3c1.2-1,2.4-2.1,3.7-3c0.8-0.3,1.5-0.5,2.4-0.6
	V838c6.8,0.4,6.9-3.9,6.5-8.6c-0.1-1.2,0-3.4,0.4-3.5c7.7-1.4,3.8-8,5.5-12.7h5.5v17.7l-5.7,0.5v23.3l6,0.8v11.5l-6.5,0.1h-5.9
	c-0.3-2.5-0.5-4.1-0.7-6.2L581.3,860.8z"/>
<path class="st12" d="M413.5,998.9c-0.2,3,0.8,6.5-4.2,6.7c-0.8,0-1.4,2.8-2,4.1c-3.9,2.8-12.7-3.7-11.9,6.9v0.1
	c-3.5-0.1-7-0.2-10.4-0.2c-7.7,0-8.8-1.4-7.2-8.9c0.2-0.8,0.5-1.7,0.7-2.5h11.1c0.2-2.3,0.4-4.1,0.6-6.5h11.5h11.7L413.5,998.9z"/>
<path class="st11" d="M641.3,987l-0.3,4.8l-6,1.7c-2-0.6-4.4-0.8-5.9-2c-1.9-1.5-3-4-4.4-6l-1,0.6c-0.2-1.5-0.5-3-0.8-5.2H617h-0.1
	v-17.6l5.7-0.4c0.4,2,0.7,3.7,1.1,5.9h4.8c0.2,1.9,0.2,3.8,0.1,5.6c-0.8,5.3,1.3,7.3,6.5,6.3v-0.1c0,1-0.4,2.2,0,3
	c0.8,1.2,1.6,2.3,2.6,3.4c0.9-1.1,1.8-2.3,2.5-3.5c0.3-0.7,0.1-1.7,0.1-2.5L641.3,987z"/>
<path class="st9" d="M522.1,1016.7l0.3-4.6l1.5,0.8c1.4-2.2,3-4.2,4.7-6.2c1-1.1,2.7-1.6,4.7-2.7c0.2-0.9,0.5-2.6,0.9-4.9l5.8-0.3
	c0,2.8,0,5.6,0,8.4c0,2.2,0,4.1,3.1,4.4c0.8,0.1,1.9,2.1,2.1,3.3c0.2,2.6,0.2,5.3,0.1,7.9l-4.9,0.2c-0.2-2-0.4-3.8-0.7-6.4
	L522.1,1016.7z"/>
<path class="st12" d="M623.5,951.2h-6.2c-0.2-4-0.4-7.8-0.6-11.8L611,938v-22.3l5.8-0.3v17l6.7,1V951.2z"/>
<path class="st14" d="M413.4,998.8h-11.7v-5.5l6-0.9c0.2-1.5,0.3-3,0.5-4.8l5.1-0.9c0.2-1.8,0.4-3.5,0.7-5.5l5.7-0.4v11.3
	C414.7,991.9,412.6,994.2,413.4,998.8z"/>
<path class="st11" d="M378.6,1005.2c-0.2,0.8-0.5,1.7-0.7,2.5c-1.6,7.5-0.5,8.8,7.2,8.9c3.5,0,7,0.1,10.4,0.2h-29.4v-5.5l5.5-0.8
	c0.2-1.6,0.4-3.3,0.7-5.2H378.6z"/>
<path class="st0" d="M137.9,495.9h6.5v17.7l-1.3,0.2h-5.2V495.9z"/>
<path class="st13" d="M450.3,1047.2v-6.2h18c-0.1,1.9-0.2,3.7-0.4,6.2L450.3,1047.2z"/>
<path class="st11" d="M437.7,932.7c-4.5,0.7-5.4,3.4-5.2,7.7c0.4,7.3,0.1,14.6,0.1,22.3l-6.3,0.3v-11.3l5.4-1.1v-17.2L437.7,932.7z"
	/>
<path class="st15" d="M635,980.8c-5.2,1-7.3-1-6.5-6.3c0.1-1.9,0.1-3.8-0.1-5.6c0-4-0.1-8-0.1-12l0.2-5.1c0.2,5.5,0.5,11.1,0.8,16.8
	l5.7,0.8V980.8z"/>
<path class="st13" d="M448.2,1047.3h2v5.8c-6.8,0-13.2,0.1-19.7,0c-11-0.1-22-0.3-33.1-0.4c11.6-0.1,23.1-0.1,34.7-0.3
	c1.9-0.2,3.7-0.5,5.5-0.9c2.2,0,4.4-0.2,6.6,0C447.6,1051.9,448.6,1050.2,448.2,1047.3z"/>
<path class="st0" d="M132.1,484c4.9-0.7,6.9,1.3,6.1,6.3c-0.2,1.9-0.3,3.8-0.2,5.7h-5.9L132.1,484z"/>
<path class="st13" d="M640.2,981.1c0,0.9,0.3,1.9-0.1,2.5c-0.7,1.2-1.6,2.4-2.5,3.5c-1-1-1.9-2.2-2.6-3.4c-0.4-0.8,0-2,0-3
	L640.2,981.1z"/>
<path class="st12" d="M628.6,951.8l-0.2,5.1c-4.2,0.3-5.9-1.5-4.9-5.7L628.6,951.8z"/>
<path class="st11" d="M438.8,927.2c-0.2,1.3-0.5,2.6-0.8,4C438.2,929.9,438.5,928.6,438.8,927.2z"/>
<path class="st2" d="M725.1,716.2c0.3,0.1,0.5,0.3,0.5,0.6L725.1,716.2z"/>
<path class="st3" d="M528.6,290.3c-0.1-0.7-0.3-2.2-0.6-4l-5.6-0.9c-0.2-3.5-0.4-7-0.6-10.6l-5.5-0.9c-0.3-1.7-0.6-3.4-0.7-3.8
	l-9.9-9.6l-1,0.8c-0.3-1.5-0.7-3-1-4.5l-5.2-0.7l-1.2-5.6l-5.4-0.8c0-2.9,1.1-6.3-3.8-6.2c-0.9,0-1.9-2.7-3.2-4.7l-4.6-0.7
	c-0.3-1.9-0.5-3.5-0.8-5.5l-5.4-0.8c-0.3-1.8-0.6-3.4-0.6-3.7l-6.5-6.2l0.7-0.9l-5.2-0.8c-0.3-1.9-0.6-3.6-0.9-5.5l-5.6-0.9v-10.1
	l-5.5-1.9v-11.1l-6.1-1.2c-0.2-3.2-0.3-6.7-0.5-10.4l-6.1-1.4c0-4.3,0.1-8.6,0-13c0-1.3-0.5-3.7-1-3.7c-6.1-0.4-4-5-4.2-8.2
	s0-6.2,0-9.6l-5.9-1.1V125c9.5-0.1,4.6-7.7,5.6-10.4l7-6.9l-0.6-0.8l5-0.7c0.3-1.7,0.6-3.3,1-5.3l5.5-1.2c0.2-1.6,0.5-3.1,0.5-3.6
	l12.7-12.4c-0.2-0.3-0.5-0.6-0.7-0.9l5.3-0.8c0.3-1.8,0.6-3.4,1-5.6c1.7-0.1,3.4-0.2,5.1-0.3s3.5,0,5.4,0c0.4-2.1,0.7-3.7,1.2-6
	c1.7-0.1,3.6-0.2,5.4-0.3c2.7-0.1,5.9,0.8,6-3.7c0-0.6,2.1-1.4,3.3-1.5c2.8-0.2,5.5-0.1,8.5-0.1c0.4-2.3,0.7-4,1-6.2h16.8
	c0.4-2.3,0.7-3.9,1-6h33.8l1.1,5.7H574c0.5,2.4,0.9,4.2,1.5,6.5c3.3,0,6.6-0.1,9.9,0c3.1,0.2,7.5-1.8,7.8,4.1c0,0.5,2.3,1.1,3.6,1.1
	c4.3,0.1,8.7,0.1,13.3,0.1l1.1,6.2H628c0.4,2.3,0.7,3.9,1.2,6.5c3.8,0,7.8,0.1,11.8,0c3.5-0.2,6.5,0.1,5.9,4.9l5.6,0.9l0.9,5.8H665
	c0.4,2.3,0.6,4,1,5.8l4.1,1l-0.7,0.8l8.8,9l-0.5,0.8l5.7,1c-1.6,9.1,2.8,14.8,11.4,18.6c0.2,1.1,0.4,2.8,0.7,4.7l5.4,0.9
	c0.3,1.7,0.6,3.4,0.9,5.1l0.7-0.6c1.4,1.6,3.5,2.9,4,4.7c0.7,2.2,0.2,4.8,0.2,7.6l5.9,1.3c0.3,1.7,0.5,3.4,0.8,5.3l5.6,0.9v28
	l5.5,1.9c0,10.7,0,21.4,0,32c0,0.8-0.4,2.3-0.7,2.3c-7.2,0.9-4,6.4-4.5,10.1c-0.2,2.6-0.2,5.3-0.1,7.9l-6.2,1.1v16.7l-1.9-0.8
	l-4.7,6.4c-0.3,0.4-0.6,1.2-0.9,1.1c-4.4-0.2-4.3,3-4.5,6.2l-5.7,0.9c-0.2,3.5-0.4,6.9-0.6,10.6l-5.5,1c-0.3,1.6-0.6,3.3-1,5.3
	c-8.7,0.4-3,7.9-5.7,11.8l-5,0.8c-0.3,1.8-0.5,3.4-0.8,5.4l-5.4,0.9c-0.3,1.7-0.6,3.4-0.6,3.5c-1.7,1.9-3.4,3.8-5.3,5.5
	c-1.9,1.3-3.9,2.5-5.9,3.6c-0.1,0.8-0.4,2.5-0.8,4.8h-16.9l-1,6H588c-0.3-1.6-0.7-3.3-1.1-5.6h-17.6c-0.5-2.3-0.8-3.9-1.3-6.6
	c-1.8,0-3.8,0-5.8,0c-2.7,0-5.4,0.5-5.5-3.7c0-0.6-1.9-1-2.7-1.7c-1.2-1-2.3-2.1-3.3-3.3c-0.7-0.8-1.1-2.7-1.7-2.7
	c-4.1,0-4-2.8-3.6-5.5c0.7-5-1-7.2-6.2-6.5c-2.8,0.4-5.1,0-5.6-3.8C533.3,293.2,530.8,292.2,528.6,290.3z M592.2,249.8
	c0.4,2.4,0.6,4.1,0.9,6l5.6,0.8c-0.5,4.7,2.3,5.1,5.9,4.9c4-0.2,7.9,0,11.8,0c0.4,2.5,0.7,4.2,1,5.9h23.3c0.3-2,0.6-3.7,0.9-5.4
	l1.1,0.7l5.7-6.4l3.9-0.8c0.4-2,0.7-3.7,1-5.3l5.4-0.9c0.3-2,0.6-3.6,0.9-5.4l5.3-0.8l-0.7-1.1l6.4-5.7c0.1-0.6,0.4-2.3,0.8-3.9
	l5.5-1c0.2-3.7,0.4-7.1,0.5-9.3c2.6-1.9,5.6-3,5.7-4.3c0.5-7.1,0.2-14.2,0.2-21.1l-5.9-1.2c-0.2-4.1-0.4-7.8-0.6-11.5l-6-1.1
	c0.1-2.5,0.1-5-0.1-7.5c-0.1-1.2-1.1-3.2-1.7-3.2c-4.2-0.1-3.6-3-3.6-5.6V161l-6.5-1.5v-11.3l-5.7-0.9l-1.1-4.7
	c-5,0.4-6.1-2.3-5.8-6.5c0.1-2.1-0.4-4.2-1.5-6.1c-1.2-1.8-3.3-2.9-5.1-4.3l0.6-0.9l-5.1-0.8c-0.3-1.9-0.6-3.6-0.9-5.6l-10.5-0.5
	c-0.5-2.2-0.9-4-1.4-6.2h-11.3c-0.3-2.1-0.6-3.8-0.9-5.9c-5.4,2.1-4.6-2.3-5.5-5.3l-11.6-0.5c-0.3-2.1-0.6-3.8-1-6h-23.7
	c2.2-6.5-1.6-6.4-5.7-6.4c-13.7,0.1-27.4,0-41.1,0c-1.9,0-3.7,0.2-5.5,0.2c-0.4,2.2-0.7,3.9-1.1,6.2h-16.8c-0.4,2.3-0.6,4-0.9,5.8
	l-5.4,0.9c-0.3,1.9-0.6,3.6-1,5.9c-1.9,0.1-3.9,0.1-5.8,0c-4.1-0.5-5.8,1-5.4,5.2c0.4,4.1,0.1,8.2,0.1,12.1L474,125v40.1l5.6,1.1
	c0.2,4,0.4,7.8,0.5,11.6l5.6,0.9l1,4.6c4.8-0.6,6.1,2,5.2,6.2l5.5,0.9c0.3,2,0.6,3.6,0.8,5.4l5.3,0.8c0.5,2.1,0.9,3.9,1.4,6.1h10.2
	c1.2,9.4,9.1,2.8,12.9,6.1c0.3,1.6,0.6,3.3,0.9,5.1l10.6,0.6c0.3,2.1,0.6,3.8,1,6c2.3-0.1,4.6-0.1,6.9,0.1c1,0.1,2.8,1,2.8,1.5
	c0.1,4.5,3.3,3.7,6,3.7c2.2,0,4.4,0,6.5,0c0.3,2.5,0.5,4,0.8,5.8l4.5,1c-0.2,0.4-0.5,0.7-0.7,1.1l9.6,9.9l3.7,0.6
	c0.3,1.9,0.6,3.6,0.9,5.7L592.2,249.8z"/>
<path class="st3" d="M857,388.5c0.3,1.9,0.6,3.6,1,5.7h10l1.8,5.2l5,0.7c0.3,1.7,0.6,3.3,0.7,4l12.8,12.4l-0.7,0.9l5.3,0.8
	c0.3,1.8,0.5,3.5,0.8,5.4l4.9,1.2v10.3l6,1.2c0.2,3.6,0.4,7.4,0.6,11.4l6.1,1.4v18.8c0,2.3-0.4,4.6,3.1,4.9c0.8,0.1,2.1,2.5,2.1,3.9
	c0.2,8.2,0.1,16.5,0.1,24.8c0,6.1,0,6.1,6,7.8v34.4l-3.6,0.7l-7.7,7.7v8.5l-5.8,1.1c-0.3,1.5-0.6,3.2-0.9,5
	c-12,3.6-12.1,13.3-11.1,23.5l-5.8,1.1c-0.3,1.6-0.6,3.3-1,5.2l-4.9,1.1c-3,3.7,3.1,11-5.8,11.7c-0.3,1.7-0.5,3.4-0.9,5.4h-29.6
	c-0.3-1.8-0.6-3.4-0.8-4.8c-3.4-3.6-11.5,3.4-11.7-6.3h-10.2l-5.5-7.8l-1.4,0.8c-0.3-1.7-0.5-3.3-0.9-5.3l-3.8-0.7l-9.6-9.9l0.8-1
	l-4.8-1.2v-10.3l-6-1.4c-0.3-1.7-0.5-3.4-0.8-5.3l-4-0.6l-5.4-6.3l-0.2,0.1l-6.2-6.7l-1.4,0.9c-0.2-3.4-0.3-6.9-0.5-10.6l-5.6-1
	v-28.5l5.6-1.1c0.2-3.6,0.3-7.4,0.5-11c8.4-3.4,13.2-8.8,11.3-18.5l6.1-1.1c0.2-3.3,0.4-6.8,0.6-10.5l6.1-1.2c0-2,0-4.2,0-6.4
	c0-2.7-0.8-5.8,3.7-6c0.6,0,1.5-2.8,1.5-4.3c0.2-8,0.1-16.1,0.1-24.3l6.2-1v-16.8l6.2-1.1c0.1-1.8,0.2-3.6,0.3-5.5
	c0.1-2.7-0.7-5.6,3.8-6c1-0.1,1.6-3.3,2.6-5.5L857,388.5z M886.8,555.5c0.2-3.8,0.4-7.2,0.5-10.6l6-1.4c0-4.2,0-8,0-11.9
	c0-2.6-0.6-5.5,3.6-5.5c0.6,0,1.6-1.8,1.6-2.7c0.1-8.9,0.1-17.9,0.1-26.8l-5.5-1.9v-10.1l-6.1-1v-16.7l-6.4-1.5v-22.8l-4.9-1.3
	c-0.2-3.7-0.4-7.1-0.5-10.5l-5.6-1c-0.3-1.9-0.6-3.6-0.9-5.4l-5.4-0.8c-0.3-1.9-0.6-3.6-1-5.9c-2.9,0-5.8-0.5-8.4,0.1
	c-5.5,1.4-13.9-4.8-16.2,5.8l-4.1,0.9l-0.8,5.3l-5.9,1v34.6l-6.4,1.5v16.6l-5.4,1.3v28.4l-5.8,1v28.9c8,3.7,12.8,8.7,11.4,17.5
	l5.7,1c0.3,1.9,0.6,3.6,0.9,5.4l5.3,0.8c0.7,8.9,8,2.8,11.6,5.8c0.3,1.5,0.7,3.3,1.2,5.2l10,0.5l4.3,6l5.1-6.1l3.7-0.6
	c0.3-1.9,0.5-3.6,0.8-5.5l5.9-0.9c-1.4-4.5,2-4.8,5-5.4c0.2-3.7,0.4-7.1,0.6-10.6L886.8,555.5z"/>
<path class="st16" d="M168,370.7l6-1v-11.6l4.1-0.7c2.7-2.8,4.5-4.7,6.3-6.5l0.6,0.6c0.2-0.3,0.3-0.6,0.4-0.9
	c0.3-3.3-0.5-7.4,1.2-9.6c1.4-1.7,5.8-0.8,8.8-1.5c1.3-0.5,2.3-1.5,2.7-2.9c0.2-2.7,0.3-5.3,0.1-8l5-1.1c0.1-9.8,7.9-3.9,12.4-6.8
	c0.2-0.7,0.8-2.3,1.4-4.3h10.1c0.4-2.1,0.8-3.7,1.2-5.9h23.1c0.4,1.6,0.8,3.4,1.2,5.4l4.9,0.8c1.1,2.5,0.7,6.8,6,4.9v11.9l6.1,1.4
	v40.9l-5.8,1.3v10.1l-5,1.5c-0.4,3.4-1,7.1-6.5,5.6l-0.6,11.2l-5.5,0.9l-0.9,5.3c-2.7,0.7-6.4,0.7-4.9,5.4l-5.9,0.9
	c-0.3,1.8-0.5,3.5-0.8,5.4l-5.6,0.9l-0.5,10.3l-1.3-0.8c-1.5,2.2-3.2,4.3-4.9,6.3c-1.1,1.1-2.8,1.7-4.7,2.8c-0.2,1-0.5,2.7-0.8,4.6
	l-5.6,1.1c-0.2,3.2-0.3,6.7-0.5,10.4l-5.8,1.3c-0.2,1.6-0.5,3.1-0.5,3.5l-10.9,11c-0.4,6.3-7.5,1.4-11.7,3.5l-0.9,5.3h-11.6l-1-5.3
	c-4.6,0-5.3-2.9-4.9-6.9c0.3-3.6,0.1-7.3,0.1-11.1l-5.9-1v-23.3l5.9-1c0-7.6,0-15.3,0-22.9c0-2.8-1.1-6.2,3.8-6.5
	c0.6,0,1.4-2.5,1.4-3.9c0.1-8.6,0.1-17.2,0.1-25.8C167.7,374.3,167.9,372.6,168,370.7z"/>
<path class="st17" d="M540,585.3c6.3,0,12.5,0,18.8,0c1.2,0,3.3,0.1,3.4,0.5c1.8,8,8.3,3.7,12.6,4.8v5.5c-6.2,1.6-6.1,1.6-6.4,7.9
	c-0.1,1.4-0.7,4-1.2,4c-5.1,0.2-4,3.8-4,6.8l0,0l-6.6,0.3v23.4l-5.6,1l1,1.6c-1.9,1.5-3.8,3-5.7,4.6c-0.5,0.4-0.9,1-1,1.7
	c0,2.9-1.7,3.3-4.1,3.3c-6.5,0-12.9,0-19.4,0.1l-6.2,0.1v-0.3c-0.1-1.5-0.2-3.1-0.2-4c-2-1.3-3.7-2-4.9-3.2c-1.7-1.9-3.4-3.9-4.9-6
	l-1.2,0.8c-0.3-1.7-0.5-3.3-0.9-5.5h-12.1c0-3.8,1.2-6.8,6.1-6.7c0.2-3.7,0.3-7.1,0.5-10.7l5.5-0.9c0.4-1.8,0.7-3.6,1.2-5.9h5.2
	c0.1,2,0.3,4,0.5,6.1l5.3,0.7c0.2,2,0.3,3.7,0.5,5.5l5.7,0.6c0.2,2,0.4,3.7,0.5,5.2l5.6,0.8c0.2,1.9,0.3,3.6,0.4,5.2l5.2,0.7
	c0.2,2,0.4,3.7,0.6,5.4h5.7c0.1-2.1,0.2-3.8,0.3-5.5l4.7-0.7v-11l-5.1-1v-29.7C539.8,588.9,539.9,587.1,540,585.3L540,585.3z"/>
<path class="st18" d="M491.5,632.8h12.1c0.4,2.2,0.6,3.9,0.9,5.5l1.2-0.8c1.5,2.1,3.2,4.1,4.9,6c1.2,1.2,2.9,1.9,4.9,3.2
	c0.1,0.9,0.2,2.5,0.2,4h-11c-0.5,2.7-0.8,4.3-1.2,6.1l-11.5,0.5c-0.4,2.2-0.7,3.9-1,5.5l-4.1,0.8c-0.7,1.8-1.2,3.4-1.8,5h-1
	l-4.1,0.2c-0.1-1.5-0.2-3.1-0.3-4.7c-9.4-1.2-5.1-8.5-6.1-13.4c0.1-1.5,0.2-3.1,0.3-4.8l5.5-0.9c0.3-1.7,0.6-3.4,0.9-5.3l5.4-1
	c0.3-1.6,0.6-3.2,1-5.5L491.5,632.8z"/>
<path class="st19" d="M563.2,614.9c0.1-3-1-6.6,4-6.8c0.5,0,1.1-2.6,1.2-4c0.3-6.3,0.2-6.3,6.4-7.9v-5.5H599v23.5l-6,1.2
	c-0.1,1.8-0.2,3.8-0.3,5.8h-11.1c-0.4-2.5-0.7-4.1-1-6.3H563.2z"/>
<path class="st17" d="M534.2,585.3l-0.1-6.3h6v6.3l0,0L534.2,585.3z"/>
<path class="st11" d="M492.5,993.5l-6.3-0.1v-12.6l3.5-0.2c1.9-2.5,3.1-4.4,4.6-6c1.6-1.5,3.3-3,5.1-4.4l-0.6-0.7l4.8-0.9V957
	l-5.3-0.7c-0.4-1.5-0.7-3-1.1-4.7c-10.1,0-3.7-8.3-6.7-12.5l-4.1-1c-0.2-3.7-0.4-7.1-0.6-10.6l-5.6-0.9c-0.3-1.9-0.6-3.6-0.8-5.3
	l-6-1.4v-10.3l-4.8-1.1c-1.6-4.9,2.8-12.6-6.4-12.7v-22l6-1.3c0-4.2,0-8,0-11.8c0-2.5-0.7-5.5,3.5-5.6c0.6,0,1.7-2,1.7-3.2
	c0.2-5.8,0.2-11.6,0-17.4c0-1.1-1.1-3.2-1.7-3.2c-4.2-0.1-3.5-3-3.5-5.6c0-4.2,0-8.4,0-12.6l0,0l5.5-0.4v-23.4l5.8-1
	c0.2-3.7,0.4-7.1,0.6-10.6l5.6-0.9c0.3-1.9,0.5-3.5,0.7-4.6c2-1.2,4.7-2.1,4.7-3.1c0.2-4.9,3.4-4.6,6.6-4.5l6.1-0.4
	c0.2-4,0.4-7.4,0.5-10.8l5.6-1l0.9-5.5l4.8-0.3c0,10.4,0.1,20.7-0.1,31.1c0,1.6-1.1,4.4-2,4.5c-3.4,0.4-3.3,2.4-3.3,4.8
	c0,6.4,0,12.9,0,19.1l-5.9,1.1V819l5.5,1v22.2l-6,1v29.4l-6.4,1.4v10.2l-5.7,1.3c-1.3,10.7-1,11.2,5.5,11.8l0.8,5.2h5.3
	c0.5-2.1,0.8-3.9,1.1-5c2.3-0.8,4.3-0.8,5.4-1.9c1.8-1.7,2.9-4,4.3-6.1l1.5,0.7v-5.2l5.8,0.3c0.4,2.3,0.7,4,1,5.2
	c2.2,0.8,5.3,1.5,5.3,2c-0.2,4.4,3.8,3.6,5.8,5.2c1.2,4.5-4.1,12,6.3,12.1v28.5l-6.1,1v16.5l-4.9,1.6c-2.8,4,3.5,12.3-6.6,12.3
	c-0.3,1.6-0.7,3.1-1,4.7c-1.8,0.2-3.3,0.4-5.2,0.7l-0.9,5l-1-0.7c-1.4,1.9-2.7,3.8-4.2,5.7c-0.6,0.8-1.2,1.5-2,2.1
	c-1.7,1.3-3.5,2.4-5.3,3.6c0.2,0.4,0.5,0.8,0.7,1.2l-5.8,1.7L492.5,993.5z"/>
<path class="st20" d="M563.2,902.8c0.1-1.5,0.2-3,0.3-4.9c4.2,0.1,6.8-1.6,6.3-6.2l4.8-1.1c0.1-2.1,0.2-4,0.3-5.8l5.8-0.3
	c0.4-2.3,0.7-3.9,1.1-6H599v12.1l6.2,1.1v11.2h-6.2v17.9l0,0h-6.3l-5,0.4v23.6l4.9,0.3c-0.9,5.1,1.2,7.3,6.4,6.4v17.8
	c0,8.1,0,16.2,0,24.3v22.7l5.9,1.1c0.3,1.9,0.6,3.6,0.9,5.3l1.5-0.7c1.1,1.8,3.5,4.4,3,5.3c-2.8,4.9-7.2,1.3-10.8,2
	c-0.5-2.3-0.8-4-1.2-5.8l-10.5-0.6c-0.3-2.1-0.6-3.8-1-6H576c-3.1-4.3,2.8-11.8-5.7-12.2c-2.7-4.3,3.7-12.6-7-12.4v-11.3l4.6-0.3
	c-0.2-0.3-0.5-0.7-0.7-1l9.5-10.1l4-0.8v-16.9l-5.4-1.1c-0.4-2-0.7-3.7-1.1-5.3l-5.8-1c0.1-2.5,0.1-5-0.1-7.5
	c-0.2-1.2-1.4-2.3-2.2-3.5c-1-1.5-2.8-2.9-2.9-4.3C563.1,920.3,563.2,911.6,563.2,902.8z"/>
<path class="st21" d="M563.2,902.8c0,8.8-0.1,17.6,0.2,26.3c0,1.5,1.9,2.9,2.9,4.3c0.8,1.1,2,2.2,2.2,3.5c0.2,2.5,0.2,5,0.1,7.5
	l5.8,1c0.3,1.6,0.7,3.3,1.1,5.3l5.4,1.1v16.8l-4,0.8l-9.5,10.1c0.2,0.3,0.4,0.7,0.7,1l-4.6,0.3h-6c-0.2-4-0.4-7.4-0.6-11.1l-6.1-1
	c0-4.5,0.1-9,0-13.5c0-1.2-0.8-3.5-1.2-3.5c-5.1-0.2-4-3.9-4-6.8c0-5.6,0-11.2,0-17.4l-5.2-0.4v-17.4c-10.4-0.2-5.1-7.7-6.3-12.1
	l6.3-1c0,3.2-1,7.2,4.7,6.5c0.3,1.9,0.6,3.6,1,5.7h10.5c0.4-1.7,0.8-3.5,1.3-5.9L563.2,902.8z"/>
<path class="st21" d="M581.1,1016.7h5.9c0.4,2.2,0.6,3.9,1,6l10.5,0.6c0.4,1.8,0.7,3.5,1.2,5.8c3.6-0.7,8,2.8,10.8-2
	c0.5-0.9-1.9-3.5-3-5.3l-1.5,0.7c-0.3-1.7-0.6-3.3-0.9-5.3l-5.9-1.1v-22.7h6.1v15.3l6.9,6.8l-0.6,0.8l5,0.7l1,5.3l5.5,1.2
	c0.2,1.6,0.5,3.1,0.5,3.4l6.5,6.5l-0.6,0.8c0.8,0.1,1.9-0.1,2.5,0.4c1.1,0.9,2.8,2.1,2.8,3.2s-1.8,2.7-3,2.9
	c-2.5,0.4-5.1,0.1-7.9,0.1c-0.4,2.3-0.7,4-1,6h-17c-0.3-1.8-0.6-3.5-1-6c-3.9,0-7.9-0.3-11.8,0.1c-4.3,0.4-6.2-1-5.6-5.5
	c0.1-1.8,0.1-3.6,0-5.4l-6.3-1.5L581.1,1016.7z"/>
<path class="st21" d="M634.9,1015.7l-6.4,1.2c-2.6-0.1-5.3,0.4-5.5-3.8c-0.1-0.9-3.2-1.7-5.6-2.8c-0.2-1-0.5-2.7-0.8-4.6l-5.5-1
	v-23.8h5.9h0.1v17.4l5.1,1c1.1,2.3,1.8,5.4,2.9,5.5c3,0.5,3.5,2,3.9,4.5c0.1,0.9,2.1,1.3,3,2.3C633,1012.8,634,1014.2,634.9,1015.7z
	"/>
<path class="st11" d="M592.8,878.5h-11c-0.4,2.1-0.7,3.7-1.1,6l-5.8,0.3v-11.1l6.4-1v-11.9h4.7c0.2,2.1,0.4,3.7,0.7,6.2h5.9
	L592.8,878.5z"/>
<path class="st15" d="M592.7,945l-4.9-0.3v-23.6l5-0.4c0,6,0,12-0.1,18L592.7,945z"/>
<path class="st11" d="M599.1,920.8v-17.9h6.2v17.9H599.1z"/>
<path class="st11" d="M592.7,938.7c0-6,0-12,0.1-18h6.3v17.6L592.7,938.7z"/>
<path class="st11" d="M599.1,969.2v-17.8h5.9v17.5L599.1,969.2z"/>
<path class="st8" d="M448.2,1047.3c0.3,2.9-0.6,4.6-3.9,4.2c-2.2-0.2-4.4,0-6.6,0c-0.4-2.9,0.6-4.6,3.9-4.3
	C443.8,1047.5,446,1047.3,448.2,1047.3z"/>
<path class="st22" d="M492.5,993.5h5.2c1.2,5.6-2.5,5.6-6.3,5.3C491.8,997,492.2,995.3,492.5,993.5z"/>
<path class="st22" d="M540,896.5l-6.3,1c-2-1.5-6-0.7-5.8-5.2c0-0.5-3.2-1.2-5.3-2c-0.2-1.2-0.5-2.9-1-5.2l-5.8-0.3v-11.6h6.3v-11.9
	l6.4-1.5v-10.3l5.4-1.2v-16.8l5.8-1v-65.9h-6v-10.9l6.4-1.5c0-13,0.1-25.8-0.1-38.7c0-0.9-1.8-2.5-2.8-2.6s-2.5,1.2-3.2,2.2
	c-0.6,0.9-0.5,2.3-0.7,3.9c-5.2-1.2-5.1,2.2-4.6,5.3c0.7,5.2-1.5,7.1-6.4,6.2c-0.7-0.1-1.4,0.1-2.1,0c-3.2-0.4-4.3,1.1-4.2,4.2
	c0.2,4.6,0,9.1,0,13.7l-4.8,0.3l-0.9,5.5l-5.6,1c-0.2,3.3-0.3,6.7-0.5,10.8l-6.1,0.4c-0.1-1.5-0.2-3-0.3-4.9
	c-4.2,0.1-6.8-1.6-6.3-6.2l-4.8-1.1c-0.1-1.7-0.2-3.3-0.3-4.8l0.1-6.2c6.6-0.2,7.1-0.8,5.3-6.3c0-3.9,0-7.7,0-11.6l5.9-0.4v-18.5h-5
	c-0.3-1.8-0.6-3.6-0.9-5.4c2.9-9.2,1.5-12.4-5.4-12.6c-0.1-1.5-0.2-3-0.3-4.8l-6-1.1v-11.9l4.1-0.2h0.5h0.5c0.6-1.6,1.1-3.1,1.8-5
	l4.1-0.8c0.3-1.7,0.6-3.4,1-5.5l11.5-0.5c0.3-1.8,0.7-3.5,1.2-6.1h11v0.3v5.4l-5,1.3c0.5,4.5-2.2,6.1-6.2,6.2v10.7l5.7,1
	c0.1,3.3,0,6.5,0.6,9.5c0.2,0.8,2.8,1.7,4.3,1.6c4.4-0.3,9.6,0,12.9-2.3c1.7-1.2,2.9-2.9,5.4-2.9h6.2l0.9-6l4.8-0.3h17.5
	c0.3-2.5,0.5-4,0.8-6.2c5.6,1.2,4.8-2.7,4.9-6.1c0.1-4,0.6-8,1-11.9l4.6-0.3c0.6-1.8,1.1-3.3,1.6-5h5.4V668l-6,1.3
	c-0.2,1.8-0.5,3.3-0.7,5.2c-5.5-0.1-6,3.6-6,7.8c-0.1,1.6-0.1,3.2,0,4.7c0.6,4-0.6,6.4-4.8,6.4l-1,5.3l-5.9,1v16.8l-6.2,1.1v7.4
	c0,11.1,0.2,11.3,11.6,9.6c0.2,0,0.3-0.2,1.1-0.9v-5h6v-4.9l5.4-1.1c0.2-4.1,0.4-7.8,0.5-11.5l5.6-1.1c0.3-2,0.7-3.6,1-5.3l5.5-1
	c0.2-3.7,0.4-7.1,0.5-10.8l5-0.3c0,6,0,11.9,0,17.9c0,3,1.1,6.6-4,6.8c-0.5,0-1.2,2.3-1.2,3.5c-0.1,5.1-0.1,10.2-0.1,15.2v22.7
	l5.3,0.3v28.3c-5,2.5-7.4,0.2-5.6,18.5l-5.8,1.3c-0.1,1.7-0.2,3.3-0.3,5s0,3.4,0,5.4L575,819v17.8l-6.2,1.2
	c-0.1,1.7-0.2,3.6-0.3,5.5c-0.1,2.7,0.8,5.9-3.8,6c-0.5,0-1.4,2.1-1.5,3.3c-0.2,2.4-0.1,4.8-0.1,7.5l-6,1c-0.2,3.8-0.3,7.6-0.5,11.6
	l-5.2,0.9c0.2,0.3,0.4,0.6,0.6,0.9c-1.8,1.3-3.5,2.7-5.1,4.2c-0.9,1-1.4,2.2-1.5,3.4c-0.2,3-0.1,6-0.1,9
	C541,890.6,539.3,892.4,540,896.5L540,896.5z M550.5,765.1c0,4.8,0.1,9.2-0.1,13.5c-0.1,1.3-1,3.7-1.7,3.7c-4.2,0.2-3.5,3.1-3.5,5.7
	c0,14.6-0.1,29.2,0.1,43.7c0,2.1-1.5,5.7,2.6,5.4c1.1-0.1,2-3.2,3-4.9c0.2-0.3,0.4-0.6,0.7-0.8l4.9-0.9c0.4-2,0.7-3.7,1-5.3l5.8-1
	c-0.1-2.5-0.1-5,0.1-7.5c0.1-1.2,1-3.2,1.6-3.2c4.2-0.1,3.8-3,3.5-5.6c-0.5-4.6,0.4-8,6.1-7.8c0.2-3.8,0.4-7.2,0.5-10.6l5.7-1v-28.6
	l-6-1c0-4.8,0.1-9.5-0.1-14.2c0-1-1.1-2.7-2-2.9c-1.3-0.1-2.7,0.3-3.6,1.2c-1.7,1.7-3.3,3.6-4.8,5.5l-1.2-0.6v11l-5.5,0.9
	c-0.5,1.6-0.8,3.1-1.2,4.5L550.5,765.1z"/>
<path class="st15" d="M563.2,728.8v5c-0.8,0.7-1,0.9-1.1,0.9c-11.3,1.7-11.6,1.5-11.6-9.6v-7.4l6.2-1.1v-16.8l5.9-1l1-5.3
	c4.2,0,5.5-2.5,4.8-6.4c-0.1-1.6-0.1-3.2,0-4.7c0-4.1,0.5-7.8,6-7.8c0.2-1.9,0.5-3.4,0.7-5.2l6-1.3v-34.6l5.9-1.1
	c0.9-4.9,0.9-4.9,5.9-5.9l6.2,0.4v11.8l5.8,1c0.3,1.7,0.6,3.4,1,5.3l4.6,1.3c-0.4,4.3,2,6.2,6.3,6c0.1,1.9,0.2,3.4,0.3,5v5.8l4,0.6
	l6.5,6.6l1.1-0.6c0,2.9,0.1,5.9-0.1,8.8c-0.1,1-1,2.7-1.6,2.7c-4.2,0.1-3.6,3-3.6,5.6c0,5.6,0,11.2,0,17.1l-5.9,1.3
	c-0.3,1.7-0.5,3.3-0.8,5.3l-5.9,1c0,2,0,4.1,0,6.1c0,2.5,0.5,5-3.4,5.3c-0.7,0-1.8,2.6-1.8,4.1c-0.2,6.3-0.1,12.6-0.1,19.1l-6.4,1.4
	v11.9h-6.3l-5.3-0.3v-22.7c0-5.1-0.1-10.2,0.1-15.2c0-1.2,0.7-3.5,1.2-3.5c5.1-0.2,4-3.8,4-6.8c0-6,0-11.9,0-17.9V682l5.6-1.2
	c3-6.3-2.3-5.4-5.6-6.5c0-2,0.1-3.9,0-5.8s1-5.3-2.7-4.8c-1.1,0.2-2.3,3.2-2.4,5c-0.4,3.9-0.1,8-0.1,11.9l-6.1,1.4
	c-0.2,3.7-0.4,7.1-0.5,10.4l-5.8,1.1c-0.2,3.7-0.4,7.1-0.6,10.5l-1.3-0.8l-6.1,6.1l0.9,1l-4.5,1.1c-0.1,1.5-0.3,2.7-0.3,3.9
	c0,3.8,0.8,8-5,8.5c-0.5,0-1.2,2-1.2,3c0,0.7,1.2,1.6,2,1.8C560.5,728.8,561.8,728.9,563.2,728.8z"/>
<path class="st21" d="M540,896.5c-0.7-4.2,1-5.9,5.2-5.3C546,895.4,544.2,897.2,540,896.5z"/>
<path class="st21" d="M468.3,813.2c0,4.2,0,8.4,0,12.6c0,2.6-0.7,5.5,3.5,5.6c0.6,0,1.6,2.1,1.7,3.2c0.2,5.8,0.2,11.6,0,17.4
	c0,1.1-1.1,3.2-1.7,3.2c-4.2,0.1-3.5,3-3.5,5.6c0,3.8,0,7.7,0,11.8l-6,1.3v22c9.2,0.1,4.8,7.8,6.4,12.7l4.8,1.1V920l6,1.4
	c0.3,1.7,0.5,3.4,0.8,5.3l5.6,0.9c0.2,3.5,0.4,6.9,0.6,10.6l4.1,1c3,4.2-3.4,12.5,6.7,12.5c0.4,1.7,0.7,3.1,1.1,4.7l5.3,0.7v11.7
	l-4.8,0.9l0.6,0.7c-1.8,1.4-3.5,2.8-5.1,4.4c-1.5,1.6-2.7,3.5-4.6,6l-3.5,0.2l-5.8-0.3l-1.1-5.8l-10.7-0.6c-0.1-1.9-0.2-3.5-0.3-5
	v-5.6c4.9-0.3,7.3-2.9,6.2-7.4c-0.5-2.2-2.7-4.1-4.1-6.2l-1.6,0.8c-0.3-1.7-0.6-3.3-0.9-5.4c-6.4,0.7-6.1-3.4-6-7.9
	c0.2-5.6,0.1-11.2,0.1-16.8c-0.1-2-0.2-4-0.3-6.2h-5.9c0-1.8-0.1-3.6-0.2-5.5c0.4-3.9,0.3-7.4-5.3-6.3c0-8.4-0.1-16.8,0.1-25.2
	c0-1.5,2-2.8,2.9-4.4s2.2-2.9,2.2-4.4c0.2-10.3,0.1-20.7,0.1-31v-6l6.2-1.2v-17.4H468.3z"/>
<path class="st15" d="M486.1,747.7c0.1,1.5,0.2,3,0.3,4.8l4.8,1.1c-0.5,4.6,2.1,6.2,6.3,6.2c0.1,1.9,0.2,3.4,0.3,4.9
	c-3.2-0.1-6.4-0.4-6.6,4.5c0,1-2.8,1.9-4.7,3.1c-0.2,1.1-0.4,2.8-0.7,4.6l-5.6,0.9c-0.2,3.5-0.4,7-0.6,10.6l-5.8,1v23.3l-5.5,0.4
	c0-8.8-0.1-17.5,0.1-26.2c0-1.5,1.9-2.9,2.8-4.4c0.8-1.3,2.1-2.5,2.2-3.9c0.3-4.3,0.1-8.7,0.1-13.3l6.3-1.4V753
	C478.8,747.6,482.4,747.5,486.1,747.7z"/>
<path class="st22" d="M468.3,969.2c0.1,1.5,0.2,3,0.3,5l10.7,0.6l1.1,5.8l5.8,0.3v12.6l-12.7-1l-5-0.3c0.4-4.6-2.2-5.3-5.8-5.1
	c-4.2,0.2-8.4,0-12.5,0c0.1-1.7,0.1-3.5,0.2-3.9l6.6-6.5l-0.6-0.8l4.9-0.7l1-5.7L468.3,969.2z"/>
<path class="st11" d="M450.4,951.3v-24.2l5,0.2v23.6L450.4,951.3z"/>
<path class="st11" d="M444,962.9c0.1-1.7,0.1-3.4,0-5.1c-0.8-5.1,1-7.5,6.4-6.5v11.3L444,962.9z"/>
<path class="st11" d="M455.8,914.6h5.9c0.1,2.2,0.2,4.2,0.3,6.2h-6.2V914.6z"/>
<path class="st11" d="M450.4,902.8c5.6-1.1,5.6,2.4,5.3,6.3C450.1,910.2,449.9,906.8,450.4,902.8z"/>
<path class="st11" d="M432.4,980.9c-0.7-4.3,1.1-6,5.3-5.3v5L432.4,980.9z"/>
<path class="st11" d="M592.8,626.4c-5,1-5,1-5.9,5.9l-5.9,1.1v12h-5.4c-0.6,1.8-1.1,3.3-1.6,5l-4.6,0.3l-6.3-0.1l0.1-35.8l0,0h17.3
	c0.3,2.1,0.6,3.8,1,6.3h11.2C592.8,622.9,592.8,624.7,592.8,626.4z"/>
<path class="st5" d="M492.5,704.6h5v18.5l-5.9,0.4C491.8,717.2,492.2,710.9,492.5,704.6z"/>
<path class="st5" d="M486.2,686.6c6.9,0.2,8.2,3.4,5.4,12.6h-5.4V686.6z"/>
<path class="st7" d="M491.5,735.1c1.8,5.5,1.2,6.1-5.3,6.3C485.9,737.6,485.9,734,491.5,735.1z"/>
<path class="st22" d="M634.9,1015.7c-0.9-1.5-1.9-2.9-3-4.2c-0.8-0.9-2.8-1.4-3-2.3c-0.4-2.5-0.9-3.9-3.9-4.5
	c-1.1-0.2-1.7-3.2-2.9-5.5l-5.1-1v-17.4h5.8c0.3,2.2,0.5,3.7,0.8,5.2l1-0.6c1.4,2,2.5,4.5,4.4,6c1.5,1.2,3.9,1.4,5.9,2
	c0.1,1.5,0.2,3.1,0.3,5L646,999l1,6.1c3.1-0.1,6.2-0.1,9.3,0.1c1,0.1,1.9,1.8,2.8,2.8c-0.8,0.9-1.8,1.7-2.8,2.3
	c-1,0.3-2.1,0.3-3.1,0.1c-4.1-0.3-7.8-0.1-6.5,6.8L634.9,1015.7z"/>
<path class="st22" d="M671,1016.7c-1,0-2.3,0.4-3.1-0.1c-1-0.5-2.3-1.8-2.2-2.7s1.4-2.2,2.4-2.4c1.7-0.4,3.5-0.4,5.2,0
	c1.3,0.3,2.5,1.6,3.7,2.4c-1.3,1-2.6,1.9-3.9,2.8C672.6,1017.1,671.8,1016.8,671,1016.7L671,1016.7z"/>
<path class="st16" d="M592.2,249.9h-10.6c-0.3-2.1-0.6-3.8-0.9-5.7l-3.7-0.6l-9.6-9.9c0.2-0.4,0.5-0.7,0.7-1.1l-4.5-1
	c-0.2-1.8-0.5-3.3-0.8-5.8c-2.2,0-4.3,0-6.5,0c-2.7,0-5.9,0.8-6-3.7c0-0.5-1.8-1.4-2.8-1.5c-2.3-0.1-4.6-0.2-6.9-0.1
	c-0.4-2.2-0.7-3.9-1-6l-10.6-0.6c-0.3-1.8-0.6-3.5-0.9-5.1c-3.8-3.3-11.7,3.3-12.9-6.1h-10.1c-0.5-2.2-0.9-4-1.4-6.1l-5.3-0.8
	c-0.3-1.8-0.5-3.5-0.8-5.4l-5.5-0.9c0.9-4.1-0.4-6.8-5.2-6.2l-1-4.6l-5.6-0.9c-0.2-3.8-0.3-7.5-0.5-11.6l-5.6-1.1V125l5.9-1.2
	c0-3.9,0.3-8-0.1-12.1c-0.4-4.3,1.3-5.7,5.4-5.2c1.9,0.1,3.9,0.1,5.8,0c0.4-2.3,0.7-4,1-5.9l5.4-0.9c0.3-1.8,0.6-3.5,0.9-5.8h16.8
	c0.4-2.3,0.7-3.9,1.1-6.2c1.8-0.1,3.7-0.2,5.5-0.2c13.7,0,27.4,0,41.1,0c4.1,0,7.8-0.2,5.7,6.4h23.7c0.4,2.2,0.7,3.9,1,6l11.6,0.5
	c0.8,3,0.1,7.4,5.5,5.3c0.3,2.1,0.6,3.8,0.9,5.9h11.3c0.5,2.2,0.9,4,1.4,6.2l10.5,0.5c0.3,1.9,0.6,3.6,0.9,5.6l5.1,0.8l-0.6,0.9
	c1.7,1.4,3.9,2.5,5.1,4.3c1.1,1.8,1.7,3.9,1.5,6.1c-0.2,4.2,0.8,6.9,5.8,6.5l1.1,4.7l5.7,0.9v11.3l6.4,1.5v5.6
	c0,2.6-0.6,5.5,3.6,5.6c0.6,0,1.5,2.1,1.7,3.2c0.2,2.5,0.2,5,0.1,7.5l6,1.1c0.2,3.6,0.4,7.4,0.6,11.5l5.9,1.2c0,6.9,0.2,14-0.2,21.1
	c-0.1,1.3-3.1,2.4-5.7,4.3c-0.1,2.2-0.3,5.6-0.5,9.3l-5.5,1c-0.3,1.6-0.7,3.3-0.8,3.9l-6.4,5.7l0.7,1.1l-5.3,0.8
	c-0.3,1.8-0.6,3.4-0.9,5.4l-5.4,0.9c-0.3,1.7-0.6,3.4-1,5.3l-3.9,0.8l-5.7,6.4l-1.1-0.7c-0.3,1.7-0.5,3.4-0.9,5.4h-23.3
	c-0.3-1.8-0.6-3.4-1-5.9c-3.9,0-7.9-0.2-11.8,0c-3.6,0.2-6.4-0.2-5.9-4.9l-5.6-0.8C592.9,254,592.6,252.3,592.2,249.9z"/>
<path class="st16" d="M886.7,555.4l-5.7,0.8c-0.2,3.5-0.4,6.9-0.6,10.6c-3,0.6-6.4,0.9-5,5.4l-5.9,0.9c-0.3,1.9-0.5,3.5-0.8,5.5
	l-3.7,0.6l-5.1,6.1l-4.3-6l-10-0.5c-0.4-1.9-0.8-3.7-1.2-5.2c-3.6-3-11,3.1-11.6-5.8l-5.3-0.8c-0.3-1.8-0.6-3.4-0.9-5.4l-5.7-1
	c1.4-8.8-3.5-13.8-11.4-17.5v-29l5.8-1v-28.4l5.4-1.3v-16.6l6.4-1.5v-34.6l5.9-1l0.8-5.3l4.1-0.9c2.3-10.6,10.6-4.4,16.2-5.8
	c2.6-0.7,5.5-0.1,8.4-0.1c0.4,2.3,0.7,4,1,5.9l5.4,0.8c0.3,1.8,0.6,3.5,0.9,5.4l5.6,1c0.2,3.4,0.3,6.8,0.5,10.5l4.9,1.3v22.8
	l6.4,1.5v16.7l6.1,1v10.1l5.5,1.9c0,8.9,0.1,17.8-0.1,26.8c0,1-1,2.7-1.6,2.7c-4.2,0.1-3.6,2.9-3.6,5.5c0,3.8,0,7.7,0,11.9l-6,1.4
	C887.1,548.2,886.9,551.7,886.7,555.4z"/>
<path class="st11" d="M545.2,675l-4.8,0.3l-0.9,6h-6.2c-2.5,0-3.7,1.8-5.4,2.9c-3.3,2.2-8.5,1.9-12.9,2.3c-1.4,0.1-4.1-0.7-4.3-1.6
	c-0.6-3-0.5-6.2-0.6-9.5l-5.7-1v-10.7c4,0,6.7-1.7,6.2-6.2l5-1.3V651l6.2-0.1c0.2,1.9,0.3,3.7,0.5,5.6l5.5,1.2l1.1,5.7h11
	c0.1,1.5,0.1,3,0.2,4.6l5,1.6L545.2,675z"/>
<path class="st23" d="M540,663.4h-11l-1.1-5.7l-5.5-1.2c-0.2-1.9-0.3-3.8-0.5-5.6c6.5,0,12.9-0.1,19.4-0.1c2.4,0,4.1-0.4,4.1-3.3
	c0.1-0.7,0.5-1.3,1-1.7c1.8-1.6,3.8-3.1,5.7-4.6l-1-1.6l5.6-1v-23.4l6.6-0.3c0,11.9,0,23.9-0.1,35.8l-5.8,0.3c-0.4,2.3-0.7,4-1,5.5
	l-5.6,1c0.9,5.7-2.5,6.1-6.5,5.8C542.8,663.3,541.4,663.4,540,663.4z"/>
<path class="st4" d="M534.2,585.3h5.8c0,1.8-0.1,3.7-0.1,5.5l-5.7-0.3L534.2,585.3z"/>
<path class="st10" d="M485.1,668.7h-0.5h-0.5H485.1z"/>
<path class="st21" d="M515.7,746.7c0-4.6,0.2-9.1,0-13.7c-0.1-3.2,1-4.6,4.2-4.2c0.7,0.1,1.4-0.1,2.1,0c5,0.8,7.1-1,6.4-6.2
	c-0.4-3.2-0.5-6.5,4.6-5.3c0.3-1.7,0.1-3.1,0.7-3.9c0.7-1,2.2-2.3,3.2-2.2s2.8,1.7,2.8,2.6c0.2,12.8,0.1,25.6,0.1,38.7l-6.3,1.5
	v10.9c0,3.2,0.2,6.3-0.1,9.5c-0.1,1.1-1.2,2.9-2,3c-3.5,0.2-3.2,2.4-3.2,4.8c0,9.8-0.2,19.6,0.1,29.5c0.1,4.8,0,8.8-6.7,8.8v22
	l-6,1.2c0,3.2,0.2,6.2,0,9.1c-0.3,3.3,2.1,8.2-4.3,8.6c-0.4,0-0.8,1.5-0.9,2.3c-0.1,3.1,0,6.2,0,9.6l5.3,0.3v11.6v5.2l-1.5-0.7
	c-1.4,2.1-2.5,4.4-4.3,6.1c-1.1,1.1-3.2,1.2-5.4,1.9c-0.2,1.1-0.6,2.9-1.1,5h-5.3l-0.8-5.2c-6.5-0.5-6.8-1.1-5.5-11.8l5.7-1.3V874
	l6.4-1.4v-29.4l6-1V820l-5.5-1v-11.6l5.9-1.1c0-6.3,0-12.7,0-19.1c0-2.4-0.1-4.5,3.3-4.8c0.8-0.1,1.9-2.9,2-4.5
	C515.8,767.5,515.7,757.1,515.7,746.7z"/>
<path class="st11" d="M550.5,765.1l5.7-0.8c0.4-1.5,0.8-2.9,1.2-4.5l5.5-0.9v-11l1.2,0.6c1.5-1.9,3.1-3.8,4.8-5.5
	c1-0.9,2.3-1.3,3.6-1.2c0.9,0.2,1.9,1.8,2,2.9c0.2,4.7,0.1,9.4,0.1,14.2l6,1v28.5l-5.7,1c-0.2,3.4-0.3,6.8-0.5,10.6
	c-5.7-0.2-6.6,3.2-6.1,7.8c0.3,2.6,0.7,5.5-3.5,5.6c-0.6,0-1.5,2.1-1.6,3.2c-0.1,2.5-0.2,5-0.1,7.5l-5.8,1c-0.3,1.6-0.7,3.3-1,5.3
	l-4.9,0.9c-0.2,0.2-0.5,0.5-0.7,0.8c-1,1.7-1.9,4.8-3,4.9c-4.1,0.2-2.5-3.4-2.6-5.4c-0.1-14.6-0.1-29.2-0.1-43.7
	c0-2.5-0.8-5.5,3.5-5.7c0.7,0,1.6-2.4,1.7-3.7C550.7,774.3,550.5,769.9,550.5,765.1z"/>
<path class="st23" d="M515.8,873.3l-5.3-0.3c0-3.4-0.1-6.5,0-9.6c0-0.8,0.5-2.2,0.9-2.3c6.4-0.4,4-5.3,4.3-8.6c0.3-2.9,0-5.9,0-9.1
	l6-1.2v-22c6.7,0,6.9-4,6.7-8.8c-0.3-9.8-0.1-19.6-0.1-29.5c0-2.3-0.2-4.6,3.2-4.8c0.7,0,1.9-1.9,2-3c0.3-3.1,0.1-6.3,0.1-9.5h6
	v65.9l-5.8,1v16.8l-5.4,1.2v10.3l-6.4,1.5v11.9L515.8,873.3z"/>
<path class="st23" d="M563.2,728.8c-1.4,0.1-2.8,0-4.2-0.2c-0.8-0.2-1.9-1.2-2-1.8c-0.1-1,0.6-2.9,1.2-3c5.8-0.5,5-4.7,5-8.5
	c0-1.2,0.2-2.4,0.3-3.9l4.5-1.1l-0.9-1l6.1-6.1l1.3,0.8c0.2-3.4,0.4-6.8,0.6-10.5l5.8-1.1c0.2-3.2,0.3-6.7,0.5-10.4l6.1-1.4
	c0-4-0.2-8,0.1-11.9c0.2-1.8,1.4-4.9,2.4-5c3.7-0.6,2.5,2.8,2.7,4.8s0,3.8,0,5.8c3.3,1.1,8.5,0.2,5.6,6.5l-5.5,1.2v10.9l-5,0.3
	c-0.2,3.7-0.4,7.1-0.5,10.8l-5.5,1c-0.3,1.7-0.6,3.4-1,5.3l-5.6,1.1c-0.2,3.6-0.3,7.4-0.5,11.5l-5.4,1.1v4.9L563.2,728.8z"/>
<path class="st21" d="M540,663.4c1.4,0,2.8-0.1,4.2,0c4.1,0.4,7.4-0.1,6.5-5.8l5.6-1c0.3-1.6,0.6-3.2,1-5.5l5.8-0.3l6.3,0.1
	c-0.3,4-0.8,8-1,11.9c-0.1,3.4,0.7,7.3-4.9,6.1c-0.3,2.2-0.5,3.7-0.8,6.2h-17.4v-5.4l-5-1.6C540.2,666.4,540.1,664.9,540,663.4z"/>
<path class="st24" d="M1318.9,457V306.5h451.7V457H1620v376.4h-150.6V457H1318.9L1318.9,457z"/>
<path class="st24" d="M1845.9,833.4v-527h451.7v75.3h75.3v225.9h-75.3v75.3h75.3v150.5h-150.5V682.9h-225.9v150.5H1845.9
	L1845.9,833.4z M1996.4,532.3h225.9V457h-225.9L1996.4,532.3z"/>
<path class="st24" d="M2448.1,833.4v-527h527V457h-376.4v75.3h225.9v75.3h-225.9v75.3H2975v150.5H2448.1z"/>
<path class="st24" d="M3050.3,833.4v-527h527V457h-376.4v75.3h225.8v75.3h-225.8v75.3h376.4v150.5H3050.3z"/>
<path class="st24" d="M4029,833.4v-527h527V457h-376.4v75.3h225.9v150.6h-225.9v150.5H4029z"/>
<path class="st24" d="M4631.2,833.4V381.7h75.3v-75.3h376.4v75.3h75.3v451.7h-150.6V682.9h-225.8v150.5H4631.2z M4781.8,532.3h225.8
	V457h-225.8V532.3z"/>
<path class="st24" d="M5233.4,833.4v-527h451.7v75.3h75.3v225.9h-75.3v75.3h75.3v150.5h-150.6V682.9H5384v150.5H5233.4L5233.4,833.4
	z M5384,532.3h225.8V457H5384V532.3z"/>
<path class="st24" d="M5835.7,833.4v-527h150.5v75.3h75.3V457h75.3v-75.3h75.3v-75.3h150.6v527h-150.6V532.3h-75.3v75.3h-75.3v-75.3
	h-75.3v301.1H5835.7z"/>
<path class="st24" d="M6438.1,833.4v-527h527V457h-376.5v75.3h225.9v75.3h-225.9v75.3H6965v150.5H6438.1z"/>
<path class="st24" d="M7040.1,833.4v-527h451.7v75.3h75.3v225.9h-75.3v75.3h75.3v150.5h-150.5V682.9h-225.9v150.5H7040.1
	L7040.1,833.4z M7190.7,532.3h225.9V457h-225.9V532.3z"/>
</svg>
