<svg id="Livello_1" data-name="Livello 1" xmlns="http://www.w3.org/2000/svg" viewBox="0 0 458.41 505.68"><defs><style>.cls-1{fill:#ea3232;}.cls-2{fill:#32b813;}.cls-3{fill:#3c50e3;}</style></defs><path class="cls-1" d="M.08,391.35c0-1.6-.08-3.2-.08-4.79V119.17c0-1.59,0-3.19.07-4.79l16.17-.15q.12,7.59.25,15.17c1,1.55,2.54,1,3.88,1H48.9q.15,7.62.31,15.22c.5.34,1,.9,1.5,1a30.34,30.34,0,0,0,3.81.15l27.2.16q.11,7.5.22,15c.68,1.57,2.11,1.16,3.3,1.16h29l-.09-.1c.09,1.75.21,3.5.26,5.25.08,3.35.12,6.7.18,10,.67,1.58,2.1,1.16,3.29,1.16H147.3l-.07-.09.33,15.49c.11.68.53.85,1.14.7,3.31.05,6.62.1,9.94.13l21.76.16-.13-.11v15.4c0,.67.41.88,1,.74,3,0,6,.1,9,.12q11.35.09,22.72.15h-.12l.09,15.32c0,.66.35.88,1,.74l14.55.26a23.08,23.08,0,0,1,.54,2.85c.09,1.44,0,2.88,0,4.32V499.34c0,2.07-.12,4.15-.19,6.22l-15.89.12-.22-15c-1.46-1.72-3.48-1.28-5.33-1.28H180.29c-.09-3.63-.14-7.26-.3-10.88-.07-1.54-.36-3.08-.56-4.62a24.3,24.3,0,0,0-4.14-.75H147.57c-.12-3.3-.22-6.61-.38-9.91-.09-1.88-.28-3.76-.42-5.64a15.51,15.51,0,0,0-3.15-.81c-2.21-.14-4.45,0-6.67-.06l-22.42-.22c0-3.32-.08-6.64-.16-10,0-1.72-.17-3.46-.26-5.19a11.6,11.6,0,0,0-2.63-.87c-1.9-.14-3.81-.07-5.72-.08l-23.85-.22c0-3.32-.09-6.65-.16-10,0-1.73-.15-3.47-.23-5.21-1.45-1.45-3.31-.92-5-.94-9.11-.14-18.22-.14-27.31-.14-.05-3.31-.09-6.62-.16-9.93,0-1.73-.13-3.46-.2-5.19a7.45,7.45,0,0,0-2.07-.89c-1.4-.15-2.84-.08-4.26-.09l-26.06-.16q-.16-7.61-.35-15.17c-.68-1.19-1.87-.92-2.92-.94Q6.65,391.46.08,391.35Z"/><path class="cls-2" d="M440.29,408.08H410.67c-.77-.16-1.33,0-1.51.88-.06,3.33-.11,6.66-.2,10,0,1.74-.17,3.47-.27,5.22l-1,.26H378.08c-.77-.17-1.4-.06-1.62.84-.06,3.32-.1,6.65-.18,10,0,1.74-.13,3.48-.2,5.22l-1,.38q-14.83,0-29.67.1a4.57,4.57,0,0,0-1.45.59c-.82,5,0,10.12-.5,15.18l-1,.42-30.46.05-.93.64-.3,15.14-.92.46H279.37l-1,.65c0,3.5-.1,7-.18,10.49,0,1.54-.13,3.09-.19,4.54a5.42,5.42,0,0,1-1.65.63q-14.78.09-29.57.13l-1-.55c-.05-1.6-.16-3.2-.16-4.79V211.93l-.07.14c1.75-.08,3.5-.23,5.25-.24h23c1.4,0,2.9.31,4.35-1.16,0-4.8.09-9.89.14-15l-.08.09c1.76-.08,3.51-.22,5.26-.23h23c1.4,0,2.91.3,4.43-1.19V179.42l2.15-.4h29.38l1.08-.57q.14-7.62.25-15.22l1.91-.51h29.39l1.14-.54q.18-7.65.37-15.3l1.65-.61h29.59l1.06-.34.16-15.49a.6.6,0,0,0-.11-.84v.2l.92.27,1.06-.11h29.57l1.07-.35.16-15.48a.65.65,0,0,0-.12-.85v.15a1.4,1.4,0,0,0,.86.23l1.16-.08h13.17l1.21.51c.13,1.74.37,3.48.37,5.23v265.8a20.18,20.18,0,0,1-.46,6.15c-5.25,1-10.4-.22-15.28.71-1.11,1.67-.72,3.32-.77,4.88-.13,3.67-.2,7.34-.29,11Z"/><path class="cls-3" d="M147.21,179.35l.07.08c0-.1.16-.22.14-.29a2.84,2.84,0,0,0-.25-.53c0-2.36.08-4.74,0-7.1-.07-2.83-.26-5.65-.39-8.46-.23-.72-.65-.81-1.22-.37H118.84c-1.57,0-3.15.2-4.72.31l.09.1.13-.83q-.11-7.74-.22-15.47c-1.07-1.36-2.6-.9-4-.91H87.4c-1.89,0-3.78-.18-5.68-.28l-.06.09-.17-15.17c-.74-1.13-1.93-.91-3-.92H53a15.36,15.36,0,0,0-2.33.32l-1.78-.37-.06-15.32c-.87-1.34-2.27-1-3.48-1q-12.24-.06-24.46,0a27,27,0,0,0-2.85.34l-1.8-.45.06.06L16.48,98q13.41,0,26.81-.11c1.88,0,3.86.33,5.53-1,.06-3.33.12-6.66.2-10,0-1.74.13-3.48.19-5.22,8.91,0,17.82-.06,26.72-.13,1.89,0,3.85.3,5.54-.93.09-4.11.16-8.23.29-12.35,0-1.23-.34-2.56.67-3.62a25,25,0,0,0,3.75.56c7.93,0,15.86.07,23.8,0a19.82,19.82,0,0,0,4.11-.89c.09-4.11.17-8.23.29-12.34,0-1.23-.34-2.56.68-3.62a24.82,24.82,0,0,0,3.74.56c7.93,0,15.87.07,23.8,0a20.73,20.73,0,0,0,4.13-.84c.15-1.87.35-3.74.44-5.61.15-3.29.24-6.58.35-9.88,8.91,0,17.81.09,26.72,0a31.6,31.6,0,0,0,5.11-.81A13,13,0,0,0,180,29c.08-3.35,0-6.7,0-10,0-1.08.19-2.15.32-3.48,3.69-.37,7.17-.15,10.64-.19s7,0,10.51,0h10.77c1.1-5.25,0-10.36.71-15.36h32.33l.31,15.18c1.83,1.33,4,1.05,6,1.06q13.14.06,26.3.07.17,7.62.31,15.23c1.68,1.24,3.64,1,5.54,1h26.84l.31,15.2c1.78,1.4,3.9,1.07,5.92,1.08h26.53q.12,7.56.22,15.13c1.6,1.38,3.56,1.14,5.43,1.15H376c.08,4,.13,7.94.25,11.92,0,1.22-.38,2.57.71,3.6,1.76,1,3.7.77,5.58.77h26.15c.09,3.8.15,7.59.28,11.39.05,1.39-.39,2.87.63,4.11,1.73,1.07,3.68.81,5.56.81h26.16v15.38h-27a26.5,26.5,0,0,0-3.78.15c-.52.08-1,.67-1.44,1l-.15,5.59c-.09,3.26-.17,6.51-.26,9.77v-.2H382.57a38,38,0,0,0-4.27.09,6.38,6.38,0,0,0-1.94,1q-.11,7.65-.2,15.25H351.84c-2.06,0-4.12-.06-6.17.08-.68.05-1.32.66-2,1l-.12,15.29-.19-.13-1.1.55-30.33,0c-.64-.38-1-.18-1,.55l-.11,15.32a.5.5,0,0,0-.23.67h0a.48.48,0,0,0,.12.16v-.08c-1.58-.11-3.15-.32-4.73-.33H279.27c-.65-.41-1-.23-1.06.52l-.13,16.25.08-.09c-3.67,0-7.35-.13-11-.16s-7-.09-10.55,0-7.26-.53-11.13.6v16l.07-.14q-15.62,0-31.24-.07a9.42,9.42,0,0,0-1.39.25H213c-.75-5.34.31-10.78-.7-16.44-1.7-.07-3.25-.19-4.81-.2H189.35c-3,0-6,.14-9.07.22l.13.11c-.12-4-.2-7.94-.37-11.9-.07-1.56-.35-3.1-.54-4.65-.3-.67-.73-.73-1.27-.29H152.45C150.69,179,149,179.23,147.21,179.35Z"/></svg>