<?xml version="1.0" encoding="utf-8"?>
<!-- Generator: Adobe Illustrator 26.0.1, SVG Export Plug-In . SVG Version: 6.00 Build 0)  -->
<svg version="1.1" id="Livello_1" xmlns="http://www.w3.org/2000/svg" xmlns:xlink="http://www.w3.org/1999/xlink" x="0px" y="0px"
	 viewBox="0 0 3751.6 1080" style="enable-background:new 0 0 3751.6 1080;" xml:space="preserve">
<style type="text/css">
	.st0{fill:#EA3232;}
	.st1{fill:#32B813;}
	.st2{fill:#3C50E3;}
	.st3{fill:#FFFFFF;}
</style>
<rect x="0" y="0" width="3751.6" height="1080"/>
<path class="st0" d="M472.9,678.5c0-1.6-0.1-3.2-0.1-4.8V406.3c0-1.6,0-3.2,0.1-4.8l16.2-0.1c0.1,5.1,0.2,10.1,0.2,15.2
	c1,1.5,2.5,1,3.9,1h28.5c0.1,5.1,0.2,10.2,0.3,15.2c0.5,0.3,1,0.9,1.5,1c1.3,0.1,2.5,0.2,3.8,0.1l27.2,0.2c0.1,5,0.1,10,0.2,15
	c0.7,1.6,2.1,1.2,3.3,1.2c9.7,0,19.3,0,29,0l-0.1-0.1c0.1,1.8,0.2,3.5,0.3,5.2c0.1,3.4,0.1,6.7,0.2,10c0.7,1.6,2.1,1.2,3.3,1.2h29.4
	l-0.1-0.1l0.3,15.5c0.1,0.7,0.5,0.9,1.1,0.7c3.3,0,6.6,0.1,9.9,0.1l21.8,0.2l-0.1-0.1v15.4c0,0.7,0.4,0.9,1,0.7c3,0,6,0.1,9,0.1
	c7.6,0.1,15.1,0.1,22.7,0.1h-0.1l0.1,15.3c0,0.7,0.3,0.9,1,0.7l14.5,0.3c0.2,0.9,0.4,1.9,0.5,2.8c0.1,1.4,0,2.9,0,4.3v263.8
	c0,2.1-0.1,4.2-0.2,6.2l-15.9,0.1l-0.2-15c-1.5-1.7-3.5-1.3-5.3-1.3h-27.1c-0.1-3.6-0.1-7.3-0.3-10.9c-0.1-1.5-0.4-3.1-0.6-4.6
	c-1.4-0.4-2.7-0.6-4.1-0.8h-27.7c-0.1-3.3-0.2-6.6-0.4-9.9c-0.1-1.9-0.3-3.8-0.4-5.6c-1-0.4-2.1-0.6-3.2-0.8c-2.2-0.1-4.5,0-6.7-0.1
	l-22.4-0.2c0-3.3-0.1-6.6-0.2-10c0-1.7-0.2-3.5-0.3-5.2c-0.8-0.4-1.7-0.7-2.6-0.9c-1.9-0.1-3.8-0.1-5.7-0.1l-23.8-0.2
	c0-3.3-0.1-6.7-0.2-10c0-1.7-0.2-3.5-0.2-5.2c-1.5-1.5-3.3-0.9-5-0.9c-9.1-0.1-18.2-0.1-27.3-0.1c0-3.3-0.1-6.6-0.2-9.9
	c0-1.7-0.1-3.5-0.2-5.2c-0.6-0.4-1.3-0.7-2.1-0.9c-1.4-0.2-2.8-0.1-4.3-0.1l-26.1-0.2c-0.1-5.1-0.2-10.1-0.4-15.2
	c-0.7-1.2-1.9-0.9-2.9-0.9C481.6,678.6,477.2,678.6,472.9,678.5z"/>
<path class="st1" d="M913.1,695.2h-29.6c-0.8-0.2-1.3,0-1.5,0.9c-0.1,3.3-0.1,6.7-0.2,10c0,1.7-0.2,3.5-0.3,5.2l-1,0.3h-29.6
	c-0.8-0.2-1.4-0.1-1.6,0.8c-0.1,3.3-0.1,6.7-0.2,10c0,1.7-0.1,3.5-0.2,5.2l-1,0.4c-9.9,0-19.8,0-29.7,0.1c-0.5,0.1-1,0.3-1.5,0.6
	c-0.8,5,0,10.1-0.5,15.2l-1,0.4l-30.5,0l-0.9,0.6l-0.3,15.1l-0.9,0.5h-30.5l-1,0.7c0,3.5-0.1,7-0.2,10.5c0,1.5-0.1,3.1-0.2,4.5
	c-0.5,0.3-1.1,0.5-1.7,0.6c-9.8,0.1-19.7,0.1-29.6,0.1l-1-0.5c0-1.6-0.2-3.2-0.2-4.8V499.1l-0.1,0.1c1.8-0.1,3.5-0.2,5.2-0.2h23
	c1.4,0,2.9,0.3,4.3-1.2c0-4.8,0.1-9.9,0.1-15l-0.1,0.1c1.8-0.1,3.5-0.2,5.3-0.2h23c1.4,0,2.9,0.3,4.4-1.2v-14.9l2.2-0.4h29.4
	l1.1-0.6c0.1-5.1,0.2-10.2,0.2-15.2l1.9-0.5h29.4l1.1-0.5c0.1-5.1,0.2-10.2,0.4-15.3l1.7-0.6h29.6l1.1-0.3l0.2-15.5
	c0.2-0.3,0.2-0.6-0.1-0.8v0.2l0.9,0.3l1.1-0.1h29.6l1.1-0.4l0.2-15.5c0.2-0.3,0.1-0.6-0.1-0.9v0.1c0.3,0.2,0.6,0.2,0.9,0.2l1.2-0.1
	h13.2l1.2,0.5c0.1,1.7,0.4,3.5,0.4,5.2v265.8c0.2,2.1,0,4.1-0.5,6.2c-5.2,1-10.4-0.2-15.3,0.7c-1.1,1.7-0.7,3.3-0.8,4.9
	c-0.1,3.7-0.2,7.3-0.3,11L913.1,695.2z"/>
<path class="st2" d="M620,466.5L620,466.5c0.1,0,0.2-0.1,0.2-0.2c-0.1-0.2-0.1-0.4-0.2-0.5c0-2.4,0.1-4.7,0-7.1
	c-0.1-2.8-0.3-5.6-0.4-8.5c-0.2-0.7-0.7-0.8-1.2-0.4h-26.7c-1.6,0-3.2,0.2-4.7,0.3l0.1,0.1l0.1-0.8c-0.1-5.2-0.1-10.3-0.2-15.5
	c-1.1-1.4-2.6-0.9-4-0.9c-7.6,0-15.2,0-22.8,0c-1.9,0-3.8-0.2-5.7-0.3l-0.1,0.1l-0.2-15.2c-0.7-1.1-1.9-0.9-3-0.9h-25.5
	c-0.8,0-1.6,0.2-2.3,0.3l-1.8-0.4l-0.1-15.3c-0.9-1.3-2.3-1-3.5-1c-8.2,0-16.3,0-24.5,0c-1,0.1-1.9,0.2-2.9,0.3l-1.8-0.5l0.1,0.1
	l0.2-15.2c8.9,0,17.9,0,26.8-0.1c1.9,0,3.9,0.3,5.5-1c0.1-3.3,0.1-6.7,0.2-10c0-1.7,0.1-3.5,0.2-5.2c8.9,0,17.8-0.1,26.7-0.1
	c1.9,0,3.8,0.3,5.5-0.9c0.1-4.1,0.2-8.2,0.3-12.4c0-1.2-0.3-2.6,0.7-3.6c1.2,0.3,2.5,0.5,3.8,0.6c7.9,0,15.9,0.1,23.8,0
	c1.4-0.2,2.8-0.4,4.1-0.9c0.1-4.1,0.2-8.2,0.3-12.3c0-1.2-0.3-2.6,0.7-3.6c1.2,0.3,2.5,0.5,3.7,0.6c7.9,0,15.9,0.1,23.8,0
	c1.4-0.1,2.8-0.4,4.1-0.8c0.2-1.9,0.3-3.7,0.4-5.6c0.2-3.3,0.2-6.6,0.3-9.9c8.9,0,17.8,0.1,26.7,0c1.7-0.1,3.4-0.4,5.1-0.8
	c0.3-0.9,0.5-1.8,0.6-2.7c0.1-3.4,0-6.7,0-10c0-1.1,0.2-2.1,0.3-3.5c3.7-0.4,7.2-0.1,10.6-0.2s7,0,10.5,0H685
	c1.1-5.2,0-10.4,0.7-15.4H718l0.3,15.2c1.8,1.3,4,1,6,1.1c8.8,0,17.5,0.1,26.3,0.1c0.1,5.1,0.2,10.2,0.3,15.2c1.7,1.2,3.6,1,5.5,1
	c9,0,17.9,0,26.8,0l0.3,15.2c1.8,1.4,3.9,1.1,5.9,1.1h26.5c0.1,5,0.2,10.1,0.2,15.1c1.6,1.4,3.6,1.1,5.4,1.1h27.1
	c0.1,4,0.1,7.9,0.2,11.9c0,1.2-0.4,2.6,0.7,3.6c1.8,1,3.7,0.8,5.6,0.8h26.2c0.1,3.8,0.2,7.6,0.3,11.4c0,1.4-0.4,2.9,0.6,4.1
	c1.7,1.1,3.7,0.8,5.6,0.8h26.2v15.4h-27c-1.3,0-2.5,0-3.8,0.1c-0.5,0.1-1,0.7-1.4,1l-0.2,5.6c-0.1,3.3-0.2,6.5-0.3,9.8v-0.2h-26.1
	c-1.4-0.1-2.8,0-4.3,0.1c-0.7,0.2-1.4,0.6-1.9,1c-0.1,5.1-0.1,10.2-0.2,15.2h-24.3c-2.1,0-4.1-0.1-6.2,0.1c-0.7,0-1.3,0.7-2,1
	l-0.1,15.3l-0.2-0.1l-1.1,0.5l-30.3,0c-0.6-0.4-1-0.2-1,0.5l-0.1,15.3c-0.2,0.1-0.4,0.4-0.2,0.7c0,0,0,0,0,0c0,0.1,0.1,0.1,0.1,0.2
	v-0.1c-1.6-0.1-3.2-0.3-4.7-0.3h-26.7c-0.7-0.4-1-0.2-1.1,0.5l-0.1,16.2l0.1-0.1c-3.7,0-7.3-0.1-11-0.2s-7-0.1-10.5,0
	s-7.3-0.5-11.1,0.6v16l0.1-0.1c-10.4,0-20.8,0-31.2-0.1c-0.5,0-0.9,0.1-1.4,0.2h0.1c-0.8-5.3,0.3-10.8-0.7-16.4
	c-1.7-0.1-3.2-0.2-4.8-0.2h-18.2c-3,0-6,0.1-9.1,0.2l0.1,0.1c-0.1-4-0.2-7.9-0.4-11.9c-0.1-1.6-0.3-3.1-0.5-4.6
	c-0.3-0.7-0.7-0.7-1.3-0.3h-25.8C623.5,466.1,621.8,466.4,620,466.5z"/>
<g>
	<path class="st3" d="M1309.9,604.5v-17.2v-17.2v-17.2v-17.2v-17.2v-17.2v-17.2h17.2h17.2v17.2v17.2v17.2v17.2v17.2h17.2h17.2h17.2
		h17.2h17.2v17.2v17.2H1413h-17.2h-17.2h-17.2h-17.2h-17.2H1309.9z"/>
	<path class="st3" d="M1447.4,587.3v-17.2v-17.2v-17.2v-17.2v-17.2v-17.2h17.2h17.2v17.2v17.2v17.2v17.2v17.2h17.2h17.2h17.2v-17.2
		v-17.2v-17.2v-17.2v-17.2h17.2h17.2v17.2v17.2v17.2v17.2v17.2v17.2h-17.2v17.2h-17.2h-17.2h-17.2h-17.2h-17.2v-17.2H1447.4z"/>
	<path class="st3" d="M1584.9,535.7v-17.2v-17.2v-17.2h17.2h17.2v17.2v17.2h17.2h17.2v-17.2v-17.2h17.2h17.2v17.2v17.2v17.2h-17.2
		v17.2h-17.2v17.2v17.2v17.2h-17.2h-17.2v-17.2v-17.2v-17.2h-17.2v-17.2H1584.9z"/>
	<path class="st3" d="M1705.2,604.5v-17.2v-17.2h17.2v-17.2h17.2v-17.2h-17.2v-17.2h-17.2v-17.2v-17.2h17.2h17.2v17.2h17.2v17.2
		h17.2v-17.2h17.2v-17.2h17.2h17.2v17.2v17.2h-17.2v17.2h-17.2v17.2h17.2v17.2h17.2v17.2v17.2h-17.2h-17.2v-17.2h-17.2v-17.2h-17.2
		v17.2h-17.2v17.2h-17.2H1705.2z"/>
	<path class="st3" d="M1928.6,604.5v-17.2v-17.2v-17.2v-17.2v-17.2v-17.2v-17.2h17.2h17.2h17.2h17.2h17.2h17.2v17.2h17.2v17.2v17.2
		v17.2v17.2v17.2h-17.2v17.2h-17.2h-17.2h-17.2H1963h-17.2H1928.6z M1963,570.1h17.2h17.2h17.2v-17.2v-17.2v-17.2h-17.2h-17.2H1963
		v17.2v17.2V570.1z"/>
	<path class="st3" d="M2066.1,604.5v-17.2v-17.2v-17.2v-17.2v-17.2v-17.2v-17.2h17.2h17.2h17.2h17.2h17.2h17.2h17.2v17.2v17.2h-17.2
		h-17.2h-17.2h-17.2h-17.2v17.2h17.2h17.2h17.2v17.2h-17.2h-17.2h-17.2v17.2h17.2h17.2h17.2h17.2h17.2v17.2v17.2h-17.2h-17.2h-17.2
		h-17.2h-17.2h-17.2H2066.1z"/>
	<path class="st3" d="M2203.6,518.5v-17.2v-17.2h17.2h17.2v17.2v17.2h17.2v17.2v17.2h17.2v-17.2v-17.2h17.2v-17.2v-17.2h17.2h17.2
		v17.2v17.2h-17.2v17.2v17.2h-17.2v17.2v17.2h-17.2v17.2h-17.2v-17.2H2238v-17.2v-17.2h-17.2v-17.2v-17.2H2203.6z"/>
	<path class="st3" d="M2341.1,604.5v-17.2v-17.2v-17.2v-17.2v-17.2v-17.2v-17.2h17.2h17.2h17.2h17.2h17.2h17.2h17.2v17.2v17.2h-17.2
		h-17.2h-17.2h-17.2h-17.2v17.2h17.2h17.2h17.2v17.2h-17.2h-17.2h-17.2v17.2h17.2h17.2h17.2h17.2h17.2v17.2v17.2h-17.2h-17.2h-17.2
		h-17.2h-17.2h-17.2H2341.1z"/>
	<path class="st3" d="M2478.6,604.5v-17.2v-17.2v-17.2v-17.2v-17.2v-17.2v-17.2h17.2h17.2v17.2v17.2v17.2v17.2v17.2h17.2h17.2h17.2
		h17.2h17.2v17.2v17.2h-17.2h-17.2h-17.2h-17.2H2513h-17.2H2478.6z"/>
	<path class="st3" d="M2616.1,587.3v-17.2v-17.2v-17.2v-17.2v-17.2h17.2v-17.2h17.2h17.2h17.2h17.2h17.2v17.2h17.2v17.2v17.2v17.2
		v17.2v17.2h-17.2v17.2h-17.2h-17.2h-17.2h-17.2h-17.2v-17.2H2616.1z M2650.5,570.1h17.2h17.2h17.2v-17.2v-17.2v-17.2h-17.2h-17.2
		h-17.2v17.2v17.2V570.1z"/>
	<path class="st3" d="M2753.6,604.5v-17.2v-17.2v-17.2v-17.2v-17.2v-17.2v-17.2h17.2h17.2h17.2h17.2h17.2h17.2v17.2h17.2v17.2v17.2
		v17.2h-17.2v17.2h-17.2h-17.2h-17.2H2788v17.2v17.2h-17.2H2753.6z M2788,535.7h17.2h17.2h17.2v-17.2h-17.2h-17.2H2788V535.7z"/>
	<path class="st3" d="M2891.1,604.5v-17.2v-17.2v-17.2v-17.2v-17.2v-17.2v-17.2h17.2h17.2v17.2h17.2v17.2h17.2v-17.2h17.2v-17.2
		h17.2h17.2v17.2v17.2v17.2v17.2v17.2v17.2v17.2h-17.2h-17.2v-17.2v-17.2v-17.2v-17.2h-17.2v17.2h-17.2v-17.2h-17.2v17.2v17.2v17.2
		v17.2h-17.2H2891.1z"/>
	<path class="st3" d="M3028.6,604.5v-17.2v-17.2v-17.2v-17.2v-17.2v-17.2v-17.2h17.2h17.2h17.2h17.2h17.2h17.2h17.2v17.2v17.2h-17.2
		h-17.2h-17.2h-17.2H3063v17.2h17.2h17.2h17.2v17.2h-17.2h-17.2H3063v17.2h17.2h17.2h17.2h17.2h17.2v17.2v17.2h-17.2h-17.2h-17.2
		h-17.2H3063h-17.2H3028.6z"/>
	<path class="st3" d="M3166.1,604.5v-17.2v-17.2v-17.2v-17.2v-17.2v-17.2v-17.2h17.2h17.2v17.2h17.2v17.2h17.2v17.2h17.2v-17.2
		v-17.2v-17.2h17.2h17.2v17.2v17.2v17.2v17.2v17.2v17.2v17.2h-17.2h-17.2v-17.2v-17.2h-17.2v-17.2h-17.2v-17.2h-17.2v17.2v17.2v17.2
		v17.2h-17.2H3166.1z"/>
	<path class="st3" d="M3303.6,518.5v-17.2v-17.2h17.2h17.2h17.2h17.2h17.2h17.2v17.2v17.2h-17.2h-17.2v17.2v17.2v17.2v17.2v17.2
		h-17.2H3338v-17.2v-17.2v-17.2v-17.2v-17.2h-17.2H3303.6z"/>
</g>
</svg>
